<?xml version="1.0" standalone="no"?>
<!DOCTYPE svg PUBLIC "-//W3C//DTD SVG 20010904//EN"
 "http://www.w3.org/TR/2001/REC-SVG-20010904/DTD/svg10.dtd">
<svg version="1.0" xmlns="http://www.w3.org/2000/svg"
 width="780.000000pt" height="780.000000pt" viewBox="0 0 780.000000 780.000000"
 preserveAspectRatio="xMidYMid meet">
<metadata>
Created by potrace 1.14, written by Peter Selinger 2001-2017
</metadata>
<g transform="translate(0.000000,780.000000) scale(0.100000,-0.100000)"
fill="#000000" stroke="none">
<path d="M2367 7254 c-1 -1 -47 -4 -102 -8 -105 -6 -172 -12 -221 -20 -16 -3
-45 -8 -64 -11 -19 -3 -66 -13 -104 -22 -37 -8 -73 -16 -80 -17 -6 -1 -16 -5
-22 -8 -6 -4 -24 -9 -40 -12 -16 -3 -40 -10 -54 -15 -14 -5 -65 -24 -115 -42
-172 -63 -431 -211 -580 -331 -73 -60 -289 -284 -345 -359 -74 -100 -160 -231
-160 -246 0 -7 -4 -13 -8 -13 -14 0 -172 -341 -172 -373 0 -9 -4 -18 -9 -21
-5 -3 -11 -16 -14 -28 -2 -13 -18 -75 -35 -138 -26 -99 -37 -153 -57 -290 -28
-180 -17 -570 19 -730 3 -14 7 -38 10 -55 4 -32 44 -210 52 -235 3 -8 5 -16 5
-17 0 -2 6 -21 14 -43 8 -22 12 -40 9 -40 -2 0 0 -9 6 -21 6 -11 13 -28 15
-37 2 -9 9 -30 16 -47 6 -16 13 -37 15 -45 2 -8 7 -23 13 -35 5 -11 20 -49 34
-85 14 -36 34 -85 46 -110 11 -25 20 -47 20 -50 0 -16 150 -296 211 -396 24
-38 52 -85 64 -104 11 -19 24 -36 28 -38 4 -2 8 -8 8 -13 0 -6 4 -15 10 -22 5
-7 49 -66 96 -132 48 -66 107 -145 133 -176 25 -31 55 -67 66 -81 61 -78 273
-307 349 -377 21 -20 60 -56 85 -81 26 -25 78 -72 116 -105 39 -32 77 -66 87
-75 9 -8 29 -25 45 -37 15 -12 37 -30 48 -40 11 -10 47 -38 80 -63 33 -25 62
-48 63 -53 2 -4 8 -5 13 -1 5 3 9 1 9 -3 0 -14 351 -253 371 -253 5 0 9 -4 9
-10 0 -5 4 -10 9 -10 4 0 59 -29 120 -65 62 -36 115 -65 119 -65 4 0 19 -10
34 -23 20 -17 39 -61 83 -197 63 -193 64 -197 66 -208 1 -4 12 -36 24 -72 70
-207 197 -347 375 -414 87 -32 118 -38 230 -41 161 -5 282 27 399 108 43 29
131 116 131 129 0 4 7 14 16 22 19 19 84 145 84 163 0 7 12 0 28 -15 79 -79
182 -132 312 -158 40 -8 190 -9 235 -2 187 31 333 136 427 308 21 38 66 153
72 185 1 6 15 50 30 98 25 79 32 91 64 110 21 12 39 20 41 19 2 -2 7 0 10 5 3
4 26 19 51 32 25 13 56 33 69 43 13 10 27 18 32 18 10 0 244 148 304 192 209
153 261 192 265 197 3 3 25 22 50 40 25 19 54 43 65 53 11 10 31 27 45 39 120
99 363 337 485 474 39 43 75 83 80 89 21 23 102 122 130 160 17 22 54 71 83
108 28 38 52 74 52 79 0 5 3 9 8 9 4 0 25 28 47 63 22 34 42 64 45 67 3 3 11
16 19 30 8 14 39 64 68 113 77 125 191 353 253 502 28 68 81 208 84 223 1 9 6
26 10 37 20 53 49 152 60 205 3 14 10 43 15 65 6 22 13 56 16 75 4 19 8 40 9
45 2 6 6 33 10 60 4 28 10 61 12 75 26 157 25 525 -1 695 -4 22 -18 92 -32
155 -14 63 -26 120 -27 125 -1 6 -4 15 -8 20 -6 9 -31 92 -32 107 -1 3 -4 10
-8 14 -5 4 -8 13 -8 21 0 18 -99 244 -116 263 -7 8 -13 19 -13 23 0 4 -21 44
-48 88 -26 45 -55 93 -63 108 -8 14 -21 30 -27 34 -7 4 -13 15 -13 22 0 8 -4
15 -8 15 -4 0 -16 13 -25 30 -10 16 -23 35 -30 42 -7 8 -37 43 -67 78 -177
210 -399 385 -644 508 -125 63 -136 68 -256 112 -85 31 -288 88 -338 95 -41 5
-105 15 -131 20 -95 18 -416 25 -541 11 -36 -4 -72 -7 -80 -8 -8 0 -37 -5 -65
-10 -27 -5 -64 -11 -81 -14 -17 -2 -66 -14 -110 -24 -43 -11 -87 -22 -97 -25
-70 -17 -223 -77 -342 -135 -168 -81 -324 -181 -435 -277 -65 -56 -73 -63 -77
-63 -2 0 -36 27 -76 60 -87 73 -77 66 -157 120 -92 64 -110 74 -245 143 -87
44 -232 105 -267 112 -9 2 -25 8 -36 14 -10 5 -30 12 -43 15 -13 3 -51 13 -84
22 -33 9 -69 18 -80 20 -11 2 -42 8 -70 14 -112 22 -127 24 -266 35 -82 6
-209 12 -212 9z"/>
</g>
</svg>
