<svg width="128" height="128" fill="none" xmlns="http://www.w3.org/2000/svg"><rect width="128" height="128" rx="33.778" fill="#ECF7F3"/><path d="M34.154 78.164a22.84 22.84 0 0 1-1.71.736 3.137 3.137 0 0 1-4.228-3.388 9.113 9.113 0 0 0-.424-4.376l-.011-.034c-.563-1.648-1.318-2.635-2.332-3.79-.133-.152-.275-.31-.422-.475-.994-1.112-2.276-2.547-3.373-4.61-1.985-3.733-2.587-7.971-1.356-11.944 1.242-4.007 4.24-7.393 8.785-9.578a22.86 22.86 0 0 1 1.71-.736 3.137 3.137 0 0 1 2.308.023m1.053 38.172-.918-1.909m.918 1.909-.918-1.909m.918 1.909c3.454-1.66 6.015-4.014 7.59-6.807m-8.508 4.898-1.916-.284 1.916.284m0 0-.441-.919.441.919m0 0 1.187.176c.103-.694.158-1.391.165-2.088m-1.352 1.912 1.352-1.912m7.157-2.986v10.298c0 .832.33 1.63.919 2.218l18.473 18.478a3.139 3.139 0 0 0 4.437 0l18.57-18.57a3.138 3.138 0 0 0 .918-2.218v-12.95m-43.317 2.744a14.17 14.17 0 0 0 1.228-2.88m-1.228 2.88 1.228-2.88m42.089.135c1.245 3.993 4.236 7.367 8.766 9.55.572.275 1.147.52 1.708.736a3.137 3.137 0 0 0 4.232-3.384 9.118 9.118 0 0 1 .428-4.377l.011-.032c.564-1.648 1.32-2.634 2.335-3.789l.421-.474c.995-1.111 2.279-2.546 3.377-4.609 1.988-3.73 2.594-7.968 1.365-11.942-1.238-4.008-4.233-7.395-8.776-9.584-.437-.21-.87-.398-1.286-.567a3.813 3.813 0 0 0-.032-.02l-.015-.008a17.758 17.758 0 0 0-8.032-2.519c.5-.145.962-.415 1.341-.793l.14-.14a3.137 3.137 0 0 0 .486-3.81 16.95 16.95 0 0 0-24.201-5.116c-1.046.73-2.58 2.282-3.687 3.441a57.666 57.666 0 0 0-1.947-1.973c-.616-.589-1.354-1.256-2.025-1.696l-1.71 2.609 1.71-2.609a17.255 17.255 0 0 0-13.68-2.303l-.005.002a17.214 17.214 0 0 0-5.403 2.421l-.008.006a17.47 17.47 0 0 0-2.281 1.85c-.997.952-1.873 2.022-2.608 3.187a17.147 17.147 0 0 0-2.585 7.323m51.961 28.62-.01-.034a14.207 14.207 0 0 1-.546-2.62 14.59 14.59 0 0 1-.087-1.903m.643 4.557v-2.654c0-.702-.234-1.367-.643-1.903M33.101 39.992a2.68 2.68 0 0 1 .117.05 3.138 3.138 0 0 1 1.674 1.86l6.691 14.739c-1.096-2.062-2.379-3.497-3.372-4.608-.148-.166-.29-.324-.423-.476-1.014-1.155-1.769-2.142-2.331-3.79l-.012-.034a9.113 9.113 0 0 1-.424-4.376 3.135 3.135 0 0 0-.128-1.453L33 41.907v-.003c-.001-.626.031-1.252.096-1.874l.002-.016.003-.022zm1.487 34.351c6.173-3.925 7.253-10.537 4.225-16.229-.907-1.705-1.931-2.855-2.924-3.97-1.3-1.46-2.546-2.858-3.401-5.363l2.1 25.562zm51.676-17.415a25.617 25.617 0 0 0-2.31 2.317 3.178 3.178 0 0 1-.133.141l-18.078 18.08a3.137 3.137 0 0 1-4.437 0l-18.8-18.797c.55 1.446.9 2.943 1.023 4.45.05-.023.1-.046.153-.067a3.137 3.137 0 0 1 3.418.68l16.263 16.262-.785.78-1.057 1.05-.28.278-.072.071-.018.018-.005.005-.001.001 2.21 2.226L48.02 69.087V65.95h-3.137L43.2 67.633c.13-.558.227-1.12.29-1.683l42.774-9.022zm0 0c-1.15 2.256-1.798 4.688-1.845 7.127m-41.446 4.423 1.91 1.909v11.268l16.254 16.26 2.218 2.218 2.219-2.218 16.35-16.352V70.386l1.16-1.154.001-.002.531-.528.52-.519-2.211-2.225h-3.138v2.152l-1.726-1.735 1.597-1.59.002-.003.518-.516.535-.533a3.137 3.137 0 0 1 4.706.322m-42.634-7.024 1.798-1.722-1.798 1.722z" stroke="#fff" stroke-width="6.275" stroke-linejoin="round"/><path d="M80.871 67.007c.356-.353.707-.704 1.053-1.049v15.605l-18.569 18.57-18.473-18.478V65.95l18.473 18.473S71.78 76.057 79.273 68.6l1.598-1.592z" fill="url(#a)"/><path d="M38.813 58.114c3.3 6.205 1.72 13.504-6.018 17.222-.487.234-.98.445-1.475.635a12.25 12.25 0 0 0-.57-5.882c-1.509-4.419-4.23-5.394-6.326-9.334-3.299-6.205-1.72-13.504 6.018-17.222.487-.234.98-.445 1.475-.635a12.25 12.25 0 0 0 .57 5.883c1.509 4.418 4.23 5.393 6.326 9.333z" fill="url(#b)"/><path d="M103.571 60.759c-2.097 3.94-4.82 4.913-6.332 9.33a12.258 12.258 0 0 0-.574 5.882c-.493-.19-.989-.4-1.473-.635-7.736-3.725-9.31-11.026-6.006-17.226 1.656-3.11 3.7-4.372 5.233-6.938a14.78 14.78 0 0 0-2.743.071c-.875.115-1.739.3-2.584.552a11.62 11.62 0 0 0-2.927 1.276c-.992.608-2.7 1.99-4.562 4.097l-18.079 18.08-19.941-19.94s-7.446-7.768-7.446-13.407c0-.515.026-1.03.08-1.543a14.01 14.01 0 0 1 2.118-6.008c.6-.952 1.314-1.825 2.129-2.601a14.321 14.321 0 0 1 1.876-1.523 14.076 14.076 0 0 1 4.418-1.98A14.118 14.118 0 0 1 57.95 30.13l5.676 5.678 5.498-5.5a13.812 13.812 0 0 1 19.635 4.029c.023.033.046.069.067.104l-.14.14c-.05-.008-.099-.018-.147-.025a13.914 13.914 0 0 0-3.073-.227 13.945 13.945 0 0 0-8.212 3.016 13.547 13.547 0 0 0-2.34 2.34l-11.56 11.56-1.462-1.464-.52-.518-8.839-8.84a2.988 2.988 0 0 0-2.808-1.492 2.976 2.976 0 0 0-2.356 4.454l-.255-.255c1.011 1.537 15.17 15.218 16.424 16.428l15.206-15.206a14.622 14.622 0 0 1 17.23-1.554c.075.045.149.096.224.144.457.18.917.374 1.366.59 7.736 3.726 9.311 11.027 6.006 17.227z" fill="url(#c)"/><path d="M103.571 60.759c-2.097 3.94-4.82 4.913-6.332 9.33a12.258 12.258 0 0 0-.574 5.882c-.493-.19-.989-.4-1.473-.635-7.736-3.725-9.31-11.026-6.006-17.226 1.656-3.11 3.7-4.372 5.233-6.938.449-.756.817-1.558 1.099-2.391.668-1.885.866-3.905.574-5.883.036.012.071.029.107.044.457.18.917.374 1.366.59 7.736 3.726 9.311 11.027 6.006 17.227z" fill="url(#d)"/><path d="M88.54 34.556a13.914 13.914 0 0 0-3.073-.227 13.945 13.945 0 0 0-8.212 3.016 13.547 13.547 0 0 0-2.34 2.34l-11.56 11.56-1.462-1.464-.52-.518-8.839-8.84a2.988 2.988 0 0 0-2.808-1.492 2.976 2.976 0 0 0-2.356 4.454l-.255-.255a14.071 14.071 0 0 1-2.091-10.216c.107-.62.26-1.231.455-1.83.318-.991.747-1.943 1.279-2.839A14.118 14.118 0 0 1 57.95 30.13c1.633 1.071 5.676 5.678 5.676 5.678s3.96-4.427 5.498-5.5a13.812 13.812 0 0 1 19.635 4.029c.023.033.046.069.067.104l-.14.14c-.05-.008-.099-.018-.147-.025z" fill="url(#e)"/><defs><linearGradient id="a" x1="22.797" y1="63.975" x2="105.203" y2="63.975" gradientUnits="userSpaceOnUse"><stop stop-color="#43B088"/><stop offset=".005" stop-color="#43B088"/><stop offset="1" stop-color="#52CC9F"/></linearGradient><linearGradient id="b" x1="64" y1="27.817" x2="64" y2="100.133" gradientUnits="userSpaceOnUse"><stop stop-color="#3FAB83"/><stop offset="1" stop-color="#66D5AD"/></linearGradient><linearGradient id="c" x1="36.137" y1="51.894" x2="105.203" y2="51.894" gradientUnits="userSpaceOnUse"><stop offset=".005" stop-color="#E75C5B"/><stop offset=".131" stop-color="#F13E44"/><stop offset=".26" stop-color="#F92732"/><stop offset=".38" stop-color="#FD1927"/><stop offset=".485" stop-color="#FF1423"/><stop offset=".651" stop-color="#FF1423"/><stop offset=".817" stop-color="#77BB9A"/><stop offset=".94" stop-color="#64D3AB"/></linearGradient><linearGradient id="d" x1="54745.9" y1="26786.9" x2="54745.9" y2="38235.9" gradientUnits="userSpaceOnUse"><stop stop-color="#3FAB83"/><stop offset="1" stop-color="#66D5AD"/></linearGradient><linearGradient id="e" x1="44.802" y1="39.531" x2="88.826" y2="39.531" gradientUnits="userSpaceOnUse"><stop stop-color="#ED1C24"/><stop offset=".005" stop-color="#ED1C24"/><stop offset="1" stop-color="#E75C5B"/></linearGradient></defs></svg>