<svg width="34" height="34" fill="none" xmlns="http://www.w3.org/2000/svg"><path d="m18.655 17.934-5.285.932-3.127.551a4.25 4.25 0 0 1-1.476-8.37l3.128-.552 5.284-.932c.067-.011.1-.017.132-.028s.062-.027.121-.06l7.54-4.029c.63-.336.944-.504 1.204-.378.26.127.322.478.446 1.181l2.04 11.57c.124.703.186 1.054-.015 1.262-.2.208-.554.157-1.26.056l-8.464-1.207a.869.869 0 0 0-.134-.014c-.034 0-.067.006-.134.018z" fill="#fff"/><path d="m15.55 19.92 2.052-.362-.418 2.042-1.337 6.52-.007.035c-.03.15-.073.359-.132.542a1.97 1.97 0 0 1-.498.825c-.288.28-.605.406-.838.475-.185.054-.395.09-.546.117a2.906 2.906 0 0 0-.034.006l-1.187.21-.064.01c-.314.056-.686.122-1.006.13-.371.011-1.006-.04-1.517-.566-.512-.526-.546-1.162-.525-1.533.017-.319.094-.69.158-1.002l.013-.063 1.388.284-1.388-.284 1.157-5.643.193-.943.948-.167 3.588-.633z" fill="#fff" stroke="#fff" stroke-width="2.833"/><path d="m16.98 8.576-.132-.38m.132.38-.182-.361.05-.02M16.848 8.197a1.081 1.081 0 0 1 .126-.035h-.006l-.035.007-.089.016m.004.012.132.38m-.136-.392 7.46-3.987.054-.03c.265-.14.585-.312.875-.416.342-.124.932-.264 1.563.043l-.62 1.274m-9.332 3.116-5.196.916-3.127.551a5.667 5.667 0 1 0 1.968 11.162l3.127-.552 5.196-.916 8.374 1.195.06.009c.298.042.657.094.965.093.364-.002.966-.072 1.454-.576l-1.018-.985 1.018.985c.488-.504.538-1.108.528-1.471a7.011 7.011 0 0 0-.125-.961l-.01-.061-2.04-11.57-.011-.06a7.012 7.012 0 0 0-.212-.946c-.115-.346-.369-.896-1-1.203l-.619 1.274m-9.332 3.116 9.332-3.116m0 0c-.26-.126-.575.042-1.204.378l-7.54 4.03m0 0-.413-.822-.04-.078m.453.9c-.06.032-.09.048-.121.059-.032.01-.065.017-.132.028l-5.285.932-3.127.552a4.25 4.25 0 0 0 1.476 8.37l3.127-.551 5.285-.932a.866.866 0 0 1 .134-.018c.033 0 .067.004.134.014l-1.49-8.454zm-.4-.75.277.803-.277-.803z" fill="#fff" stroke="#fff" stroke-width="2.833" stroke-linejoin="round"/></svg>