<svg width="322" height="282" viewBox="0 0 322 282" fill="none" xmlns="http://www.w3.org/2000/svg">
  <path fill-rule="evenodd" clip-rule="evenodd"
        d="M30.4543 181.508C50.2667 209.222 78.6939 233.785 110.453 249.624C110.628 250.019 110.801 250.404 110.971 250.781C111.294 251.497 111.582 252.131 111.84 252.699C113.205 255.703 113.734 256.869 114.272 258.692C115.21 261.87 117.402 268.254 123.085 273.682C129.578 279.884 137.504 282 144.471 282C149.858 282 157.74 276.223 164.915 269.793C165.502 269.267 166.054 268.73 166.572 268.185C170.417 269.704 174.685 274.942 178.322 274.942C183.469 274.942 191.525 273.827 198.554 267.46C204.721 261.874 206.839 254.999 207.63 252.275C207.726 251.945 207.807 251.691 207.927 251.385C241.142 235.639 270.983 210.271 291.545 181.508C320.271 141.326 335.634 86.5858 303.722 40.1479C280.098 5.77139 239.776 -4.7048 206.22 1.84219C189.844 5.03731 173.543 12.7065 160.844 24.6986C148.188 12.9011 132.029 5.32349 115.854 2.11429C82.3634 -4.53063 41.9619 5.68452 18.2782 40.1479C-13.6341 86.5858 1.72889 141.326 30.4543 181.508Z"
        fill="white"/>
  <path fill-rule="evenodd" clip-rule="evenodd"
        d="M30.4543 181.508C50.2667 209.222 78.6939 233.785 110.453 249.624C110.628 250.019 110.801 250.404 110.971 250.781C111.294 251.497 111.582 252.131 111.84 252.699C113.205 255.703 113.734 256.869 114.272 258.692C115.21 261.87 117.402 268.254 123.085 273.682C129.578 279.884 137.504 282 144.471 282C149.858 282 157.74 276.223 164.915 269.793C165.502 269.267 166.054 268.73 166.572 268.185C170.417 269.704 174.685 274.942 178.322 274.942C183.469 274.942 191.525 273.827 198.554 267.46C204.721 261.874 206.839 254.999 207.63 252.275C207.726 251.945 207.807 251.691 207.927 251.385C241.142 235.639 270.983 210.271 291.545 181.508C320.271 141.326 335.634 86.5858 303.722 40.1479C280.098 5.77139 239.776 -4.7048 206.22 1.84219C189.844 5.03731 173.543 12.7065 160.844 24.6986C148.188 12.9011 132.029 5.32349 115.854 2.11429C82.3634 -4.53063 41.9619 5.68452 18.2782 40.1479C-13.6341 86.5858 1.72889 141.326 30.4543 181.508Z"
        fill="white"/>
  <path fill-rule="evenodd" clip-rule="evenodd"
        d="M30.4543 181.508C50.2667 209.222 78.6939 233.785 110.453 249.624C110.628 250.019 110.801 250.404 110.971 250.781C111.294 251.497 111.582 252.131 111.84 252.699C113.205 255.703 113.734 256.869 114.272 258.692C115.21 261.87 117.402 268.254 123.085 273.682C129.578 279.884 137.504 282 144.471 282C149.858 282 157.74 276.223 164.915 269.793C165.502 269.267 166.054 268.73 166.572 268.185C170.417 269.704 174.685 274.942 178.322 274.942C183.469 274.942 191.525 273.827 198.554 267.46C204.721 261.874 206.839 254.999 207.63 252.275C207.726 251.945 207.807 251.691 207.927 251.385C241.142 235.639 270.983 210.271 291.545 181.508C320.271 141.326 335.634 86.5858 303.722 40.1479C280.098 5.77139 239.776 -4.7048 206.22 1.84219C189.844 5.03731 173.543 12.7065 160.844 24.6986C148.188 12.9011 132.029 5.32349 115.854 2.11429C82.3634 -4.53063 41.9619 5.68452 18.2782 40.1479C-13.6341 86.5858 1.72889 141.326 30.4543 181.508Z"
        fill="white"/>
</svg>
