<svg width="322" height="318" fill="none" xmlns="http://www.w3.org/2000/svg"><path d="M181.257 313.053c7.436-8.226 12.151-16.837 14.483-25.388 11.595 2.375 24.186 1.962 35.91-.576 20.881-2.287 38.535-15.339 47.32-33.501.59-1.039 1.162-2.071 1.732-3.098 4.096-7.386 8.021-14.461 17.009-21.52a52.768 52.768 0 0 1 23.143-10.704 84.98 84.98 0 0 0-4.681-5.116c-9.889-9.946-20.612-15.563-31.238-17.496v-22.835c3.261-5.456 7.157-10.779 13.921-16.092A52.794 52.794 0 0 1 322 146.023a84.964 84.964 0 0 0-4.681-5.115c-10.102-10.16-21.075-15.803-31.925-17.616 8.734-26.295-1.623-58.238-20.017-73.615-6.396-5.35-12.359-8.284-18.136-11.127-7.568-3.724-14.818-7.292-22.31-15.929A52.993 52.993 0 0 1 213.086 0a85.383 85.383 0 0 0-4.858 4.947c-9.503 10.513-14.56 21.654-15.882 32.493H175.21c-6.765-3.373-13.316-7.04-20.064-14.819A52.993 52.993 0 0 1 143.301 0a84.74 84.74 0 0 0-4.858 4.947C128.94 15.46 123.882 26.6 122.561 37.44h-.227c-12.817-2.244-26.538-1.693-38.825 1.178a59.298 59.298 0 0 0-10.743 3.247c-8.403 3.178-15.599 7.578-20.603 13-5.656 6.13-8.883 11.95-12.01 17.587-4.097 7.386-8.022 14.462-17.01 21.52A52.772 52.772 0 0 1 0 104.678a85.043 85.043 0 0 0 4.681 5.115c9.76 9.817 20.335 15.418 30.826 17.421v30.007c-2.97 4.584-6.64 9.086-12.363 13.582A52.792 52.792 0 0 1 0 181.506a85.353 85.353 0 0 0 4.682 5.115c9.496 9.552 19.763 15.112 29.974 17.251-1.923 11.545-1.153 23.605 1.842 34.505 4.515 24.588 23.985 43.927 48.606 48.191 3.207 2.267 6.414 5.061 9.666 8.811A52.982 52.982 0 0 1 106.617 318a85.4 85.4 0 0 0 4.858-4.947c7.499-8.296 12.231-16.984 14.542-25.606h30.078c2.806 2.104 5.615 4.652 8.459 7.932A52.983 52.983 0 0 1 176.399 318a85.4 85.4 0 0 0 4.858-4.947z" fill="#fff"/></svg>