<svg width="34" height="34" fill="none" xmlns="http://www.w3.org/2000/svg"><path fill-rule="evenodd" clip-rule="evenodd" d="M16.549 9.257c.198.31.704.31.903 0 1.119-1.744 3.062-2.882 5.336-2.882 3.53 0 6.07 2.855 6.39 6.257 0 0 .175.844-.204 2.364-.518 2.07-1.733 3.911-3.373 5.314l-8.306 7.004a.567.567 0 0 1-.734-.003l-8.161-7c-1.64-1.404-2.854-3.244-3.372-5.315-.38-1.52-.208-2.364-.208-2.364.32-3.404 2.864-6.257 6.393-6.257 2.275 0 4.218 1.138 5.336 2.882z" fill="#fff" stroke="#fff" stroke-width="4.25" stroke-linejoin="round"/></svg>