<svg width="132" height="76" fill="none" xmlns="http://www.w3.org/2000/svg"><path d="m100.897 25.761.001-.016c.126-2.536-.591-4.742-2.02-6.373a7.636 7.636 0 0 0-1.57-1.363 2.152 2.152 0 0 0-1.177-.35H73.547c-.423 0-.837.125-1.189.358a7.827 7.827 0 0 0-1.166.945c-1.68 1.652-2.543 4.02-2.406 6.779.015.336.046.662.086.977a2.152 2.152 0 0 0 3.45 1.428c.266-.205.56-.374.872-.5h5.664V54.74c0 1.188.964 2.152 2.152 2.152h7.02a2.152 2.152 0 0 0 2.152-2.152V27.646h6.306c.312.126.603.294.867.498a2.152 2.152 0 0 0 3.453-1.425c.041-.317.071-.636.089-.958zM57.75 27.896c-.225.675-.337 1.502-.336 2.48 0 4.069 1.1 6.325 3.302 6.769l-2.967-9.25zm0 0c.418.018.835.066 1.248.144l.4-2.115-.88-1.964a4.87 4.87 0 0 0-2.13 1.819c-.252.022-.502.054-.752.094-1.05.18-2.067.498-3.024.945l5.137 1.077zm5.118 9.249a2.152 2.152 0 0 0-1.727-2.11c-.36-.072-.67-.252-.967-.859-.345-.707-.608-1.913-.608-3.8v-.002c-.001-2.116.586-2.429.712-2.485a2.152 2.152 0 0 0-.48-4.079 13.056 13.056 0 0 0-4.505-.06l-.018.003c-1.798.306-3.514.96-5.053 1.92-.225.049-.445.135-.65.259-.084.05-.165.105-.243.164-.425.32-.717.785-.82 1.306-.189.968-.281 1.951-.276 2.936.004 3.773.92 7.014 2.885 9.53-1.372 1.084-2.42 2.55-3.073 4.23-.522 1.337-.666 2.513-.773 3.387-.016.13-.03.252-.046.368-.116.877-.255 1.544-.754 2.383l-.012.021a5.241 5.241 0 0 1-1.76 1.814 2.152 2.152 0 0 0 .186 3.754c.326.161.673.321 1.038.47l.007.003c3.75 1.512 7.347 1.058 10.011-.97l.017-.013a9.908 9.908 0 0 0 3.195-4.328c.518-1.334.661-2.506.768-3.38.016-.128.03-.25.046-.366.116-.879.254-1.546.752-2.385l.006-.011a5.37 5.37 0 0 1 1.319-1.51c.52-.407.823-1.031.823-1.692v-4.498z" fill="#fff" stroke="#fff" stroke-width="4.304" stroke-linejoin="round"/><path d="M60.43 27.837a2.152 2.152 0 0 0-.17-4.203 14.546 14.546 0 0 0-5-.003 13.99 13.99 0 0 0-5.84 2.458 2.152 2.152 0 0 0-.823 1.213l-.001.006c-.007.026-.027.107-.046.204-.02.096-.037.192-.048.29a2.152 2.152 0 0 0 3.434 1.965 9.469 9.469 0 0 1 2.209-1.24l.003-.002a9.288 9.288 0 0 1 1.847-.523 8.47 8.47 0 0 1 2.992.043c.448.087.913.029 1.326-.166a.681.681 0 0 1 .117-.042zM118.657 20.667l.015.015c2.347 2.289 3.395 5.406 3.395 9.045v25.012a2.153 2.153 0 0 1-2.153 2.153h-7.019a2.152 2.152 0 0 1-2.152-2.153v-9.453a2.139 2.139 0 0 1-.295-1.089V38.39c0-.397.107-.77.295-1.089v-8.658c.001-.14-.006-.28-.02-.419l-.004-.04a2.306 2.306 0 0 0-.103-.567.551.551 0 0 0-.015-.038 2.18 2.18 0 0 1-.306-.418 8.007 8.007 0 0 1-.057-.095 4.662 4.662 0 0 0-.241-.384c-1.026-1.44-3.005-2.338-5.322-2.124a2.153 2.153 0 0 1-1.839-3.535c.014-.017.071-.085.147-.163.041-.043.079-.08.097-.098l.004-.003.022-.022.054-.055c2.085-2.034 4.71-3.023 7.714-3.023l7.783 3.008zm0 0c-2.116-2.024-4.763-3.01-7.783-3.008l7.783 3.008z" fill="#fff" stroke="#fff" stroke-width="4.304" stroke-linejoin="round"/><path d="M114.75 38.505a2.152 2.152 0 0 0-2.152-2.153h-1.557v-7.688c0-.295.018-.528.044-.71a2.154 2.154 0 0 0 2.979-2.884 9.114 9.114 0 0 0-.551-.888v-.001c-2.056-2.923-5.648-4.296-9.239-3.96a2.15 2.15 0 0 0-1.355.655c-2.204 2.306-3.198 5.35-3.198 8.873v6.631a2.153 2.153 0 0 0-1.803 2.124v5.868c0 .758.391 1.424.984 1.808-.103.688-.133 1.297-.158 1.802a39.04 39.04 0 0 1-.019.357c-.05.851-.134 1.496-.534 2.324l-.015.031a4.734 4.734 0 0 1-1.454 1.792 2.152 2.152 0 0 0 .414 3.685c.349.156.693.285.999.395 1.353.49 2.793.696 4.23.605l.024-.001c3.951-.293 6.766-3.03 7.819-6.576.363-1.21.435-2.228.479-3.049l.011-.203c.017-.31.031-.575.052-.818h1.848a2.152 2.152 0 0 0 2.152-2.152v-5.867zM69.292 18.248c.404.404.63.951.63 1.522v34.967a2.152 2.152 0 0 1-2.151 2.152h-7.02a2.152 2.152 0 0 1-2.152-2.152v-9.091l-.034-3.55c-.001-.135.01-.268.033-.399a2.158 2.158 0 0 1-.033-.378v-3.484c0-.129.012-.257.034-.382V27.93a2.147 2.147 0 0 1-.381-.199 10.24 10.24 0 0 0-2.221.14l-.004.002a9.686 9.686 0 0 0-4.044 1.701 2.152 2.152 0 0 1-3.383-2.116c.034-.192.075-.372.104-.502l.002-.011a11.277 11.277 0 0 1 3.713-6.14l16.907-2.557zm0 0a2.152 2.152 0 0 0-1.522-.63m1.522.63-1.522-.63m0 0h-5.486m5.486 0h-5.486m0 0c-3.928 0-7.308.986-9.899 3.188l9.898-3.187z" fill="#fff" stroke="#fff" stroke-width="4.304" stroke-linejoin="round"/><path d="M62.511 43.433a2.152 2.152 0 0 0-.195-3.739c-.209-.104-.475-.236-.762-.358a2.152 2.152 0 0 0-2.99 1.983v.757a2.152 2.152 0 0 0 3.498 1.68c.144-.116.294-.223.45-.323zM22.457 39.72v-.002l-.017-5.207a2.152 2.152 0 0 0 .108-2.89c-1.346-1.602-2.923-2.76-4.519-3.375-1.55-.598-3.385-.767-4.947.098a4.871 4.871 0 0 0-1.897 1.957c-.163.31-.248.654-.248 1.004V45.56c-.048.513-.062.983-.07 1.395l-.005.257c-.006.343-.011.629-.03.925-.041.665-.147 1.285-.488 2.05-.09.2-.189.394-.299.584l-.008.014a5.16 5.16 0 0 1-1.281 1.491 2.152 2.152 0 0 0-.814 1.61 2.15 2.15 0 0 0 1.377 2.411 13.022 13.022 0 0 0 1.023.325c1.977.595 4.09.576 6.057-.055l.02-.007.028-.01c3.033-1.052 5.037-3.6 5.753-6.632v-.002a10.774 10.774 0 0 0 .282-2.153c-.01-2.682-.02-5.363-.025-8.042z" fill="#fff" stroke="#fff" stroke-width="4.304" stroke-linejoin="round"/><path d="M41.73 17.618c1.19 0 2.153.963 2.153 2.152v34.967a2.152 2.152 0 0 1-2.152 2.152h-7.02a2.152 2.152 0 0 1-2.152-2.152v-6.406c.037-3.295.01-7.233-.027-10.47l9.199-20.243zm0 0h-5.486c-.14 0-.278.013-.412.04m5.899-.04-5.9.04m-3.314 19.054.014 1.148-.014-1.148zm0 0-.139.14v.002l-3.658 3.733a2.152 2.152 0 0 1-2.938.129c-.257-.22-2.145-2.049-3.81-3.666l-.003-.002-.563-.549-2.006-1.953a2.143 2.143 0 0 1-.144-.155c-.957-1.138-1.96-1.816-2.773-2.13-.8-.308-1.204-.2-1.3-.159a.564.564 0 0 0-.189.207 2.152 2.152 0 0 1-4.055-1.004v-7.929c0-.165.019-.329.056-.49a7.928 7.928 0 0 1 2.273-3.953l.006-.005a7.947 7.947 0 0 1 1.219-.941c.342-.215.739-.33 1.144-.33h4.116c.629 0 1.227.276 1.636.754 1.797 2.103 3.592 4.206 5.385 6.31l5.743 11.99zm3.315-19.054h-.608c-.6 0-1.173.25-1.58.691l-5.604 6.066h-.001l-.793.858-.471-.55 9.057-7.065zM62.511 43.433a2.152 2.152 0 0 0-.195-3.739c-.209-.104-.475-.236-.762-.358a2.152 2.152 0 0 0-2.99 1.983v.757a2.152 2.152 0 0 0 3.498 1.68c.144-.116.294-.223.45-.323z" fill="#fff" stroke="#fff" stroke-width="4.304" stroke-linejoin="round"/><path d="M98.748 25.638c-.015.272-.04.54-.074.805a5.81 5.81 0 0 0-1.816-.95H88.03V54.74h-7.02V25.493h-8.188a5.876 5.876 0 0 0-1.815.95 9.788 9.788 0 0 1-.072-.805c-.112-2.24.585-3.98 1.766-5.142a5.67 5.67 0 0 1 .846-.685H96.13c.42.274.8.604 1.128.979 1.01 1.153 1.592 2.788 1.49 4.848z" fill="url(#a)"/><path d="M60.716 37.145v4.498a7.52 7.52 0 0 0-1.847 2.114c-1.424 2.398-.761 3.988-1.725 6.461a7.756 7.756 0 0 1-2.506 3.398c-1.986 1.512-4.765 1.95-7.902.686a13.535 13.535 0 0 1-.895-.406 7.395 7.395 0 0 0 2.48-2.56c1.427-2.398.765-3.984 1.729-6.457.852-2.19 2.493-3.834 4.635-4.499-2.863-2.172-4.296-5.521-4.3-10.05-.005-.843.075-1.685.237-2.514a.77.77 0 0 1 .062-.042c-.01.036-.019.072-.025.108a.908.908 0 0 0-.018.104 11.811 11.811 0 0 1 4.995-2.112 10.904 10.904 0 0 1 3.762.051c-1.325.594-1.986 2.077-1.984 4.45 0 4.07 1.1 6.326 3.302 6.77z" fill="url(#b)"/><path d="M59.888 25.754a2.813 2.813 0 0 0-.491.178 10.621 10.621 0 0 0-3.761-.052 11.62 11.62 0 0 0-4.996 2.17.974.974 0 0 1 .018-.108c.007-.037.016-.074.025-.11a11.839 11.839 0 0 1 4.943-2.08 12.39 12.39 0 0 1 4.262.002z" fill="url(#c)"/><path d="M117.169 22.222c-1.681-1.608-3.78-2.412-6.295-2.41-2.493 0-4.563.803-6.211 2.41-.043.046-.093.092-.136.138a.61.61 0 0 0-.05.055c2.95-.272 5.735.855 7.277 3.024.134.19.252.38.358.567.021.034.043.07.062.104.392.399.618 1.03.69 1.897.022.215.032.43.031.646v9.737h-.295v5.807h.295v10.542h7.019V29.727c0-3.218-.915-5.72-2.745-7.505z" fill="url(#d)"/><path d="M112.598 38.505v5.867h-3.709v.405a4.384 4.384 0 0 0-.084.31c-.407 1.644-.084 2.971-.659 4.892-.839 2.827-2.991 4.828-5.916 5.044a8.34 8.34 0 0 1-3.366-.482c-.286-.102-.572-.21-.85-.334a6.889 6.889 0 0 0 2.115-2.608c1.153-2.387.444-3.868 1.166-6.303.092-.315.205-.624.338-.924h-1.563v-5.867h1.803v-8.756c0-3.108.867-5.57 2.602-7.386 2.95-.276 5.735.863 7.277 3.056.153.217.293.444.42.677a1.742 1.742 0 0 0-1.3-.5c-1.321 0-1.982 1.022-1.983 3.067v9.841h3.709z" fill="url(#e)"/><path d="M67.77 19.77v34.967h-7.019v-9.101l-.034.033v-3.593c.204-.164.417-.316.637-.457a11.03 11.03 0 0 0-.637-.3v-3.484a.139.139 0 0 1 .034.01V25.751a9.211 9.211 0 0 0-1.312.187.184.184 0 0 0-.04-.007c.158-.074.322-.133.491-.177a12.391 12.391 0 0 0-4.262-.003 11.839 11.839 0 0 0-4.943 2.08c.025-.141.056-.279.088-.417a9.125 9.125 0 0 1 3.006-4.97c2.098-1.782 4.933-2.674 8.505-2.674l5.487-.001z" fill="url(#f)"/><path d="M61.354 41.62c-.22.14-.434.292-.637.456v-.757c.217.092.428.196.637.3z" fill="url(#g)"/><path d="M20.304 39.725c.007 2.68.015 5.362.025 8.045a8.62 8.62 0 0 1-.224 1.652c-.572 2.42-2.123 4.317-4.364 5.095a8.05 8.05 0 0 1-4.8.036 10.45 10.45 0 0 1-.298-.085 9.273 9.273 0 0 1-.585-.193c.087-.07.174-.147.261-.227a4.957 4.957 0 0 1-.227-.086 7.311 7.311 0 0 0 1.816-2.114c.147-.254.281-.516.401-.784.942-2.111.588-3.539.78-5.399v-14.36a2.719 2.719 0 0 1 1.035-1.078c1.617-.895 4.474.04 6.777 2.779l-.621-.604.024 7.323z" fill="url(#h)"/><path d="M41.73 19.77v34.967h-7.018v-6.382c.037-3.32.009-7.28-.029-10.52-.043-3.592-.102-6.306-.102-6.306a3238.914 3238.914 0 0 1-3.74 3.817l-3.659 3.735c-.19-.162-1.995-1.909-3.711-3.575l-2.568-2.5c-2.304-2.74-5.16-3.674-6.777-2.78a2.72 2.72 0 0 0-1.035 1.08v-7.93a5.778 5.778 0 0 1 1.657-2.88 5.8 5.8 0 0 1 .889-.686h4.116c1.796 2.102 3.591 4.204 5.384 6.308l.873 1.02c.389.46.78.917 1.172 1.376l2.438-2.638 5.604-6.066h1.03l-.01-.04h5.487z" fill="url(#i)"/><path d="M61.354 41.62c-.22.14-.434.292-.637.456v-.757c.217.092.428.196.637.3z" fill="url(#j)"/><defs><linearGradient id="a" x1="72.922" y1="50.136" x2="91.633" y2="17.253" gradientUnits="userSpaceOnUse"><stop stop-color="#52CC9F" stop-opacity=".9"/><stop offset=".995" stop-color="#43B088"/></linearGradient><linearGradient id="b" x1="45.382" y1="53.636" x2="60.721" y2="26.679" gradientUnits="userSpaceOnUse"><stop stop-color="#53C197"/><stop offset=".96" stop-color="#4DBC94"/></linearGradient><linearGradient id="c" x1="53.572" y1="29.718" x2="56.821" y2="24.009" gradientUnits="userSpaceOnUse"><stop stop-color="#5DCCA4"/><stop offset="1" stop-color="#52C096"/></linearGradient><linearGradient id="d" x1="5290.94" y1="18006" x2="7230.82" y2="16521" gradientUnits="userSpaceOnUse"><stop stop-color="#5DCCA4"/><stop offset="1" stop-color="#52C096"/></linearGradient><linearGradient id="e" x1="4592.9" y1="17193.5" x2="6522.46" y2="15703.9" gradientUnits="userSpaceOnUse"><stop stop-color="#52CC9F" stop-opacity=".9"/><stop offset=".995" stop-color="#43B088"/></linearGradient><linearGradient id="f" x1="53.451" y1="50.583" x2="70.198" y2="21.151" gradientUnits="userSpaceOnUse"><stop stop-color="#52C096"/><stop offset=".427" stop-color="#5DCCA4"/></linearGradient><linearGradient id="g" x1="171.719" y1="409.517" x2="173.025" y2="409.517" gradientUnits="userSpaceOnUse"><stop stop-color="#5DCCA4"/><stop offset="1" stop-color="#52C096"/></linearGradient><linearGradient id="h" x1="-5.024" y1="13172.6" x2="1100.25" y2="12342.4" gradientUnits="userSpaceOnUse"><stop stop-color="#52CC9F" stop-opacity=".9"/><stop offset=".995" stop-color="#43B088"/></linearGradient><linearGradient id="i" x1="1191.85" y1="17711" x2="3285.85" y2="14740.3" gradientUnits="userSpaceOnUse"><stop stop-color="#52CC9F" stop-opacity=".9"/><stop offset=".995" stop-color="#43B088"/></linearGradient><linearGradient id="j" x1="171.719" y1="409.517" x2="173.025" y2="409.517" gradientUnits="userSpaceOnUse"><stop stop-color="#5DCCA4"/><stop offset="1" stop-color="#52C096"/></linearGradient></defs></svg>