<svg width="187" height="66" viewBox="0 0 187 66" fill="none" xmlns="http://www.w3.org/2000/svg">
<path fill-rule="evenodd" clip-rule="evenodd" d="M8.6795 41.3695C12.8848 47.2093 18.9186 52.3852 25.6597 55.7229C25.6969 55.8061 25.7335 55.8872 25.7696 55.9667C25.8383 56.1176 25.8994 56.2511 25.9541 56.3708C26.2437 57.0039 26.356 57.2496 26.4703 57.6337C26.6694 58.3034 27.1346 59.6485 28.3409 60.7923C29.7191 62.0991 31.4014 62.5451 32.8802 62.5451C34.0236 62.5451 35.6966 61.3277 37.2195 59.9729C37.344 59.8621 37.4612 59.7489 37.5712 59.634C38.3874 59.9541 39.2932 61.0578 40.0653 61.0578C41.1576 61.0578 42.8677 60.8228 44.3596 59.4813C45.6686 58.3042 46.1182 56.8554 46.2859 56.2815C46.3063 56.2119 46.3235 56.1584 46.349 56.0939C53.3992 52.7759 59.733 47.4304 64.0975 41.3695C70.1947 32.9025 73.4556 21.3676 66.6819 11.5822C61.6677 4.33846 53.1092 2.13092 45.9868 3.5105C42.5109 4.18377 39.0508 5.79981 36.3555 8.32678C33.6691 5.84082 30.2392 4.24408 26.8061 3.56783C19.6975 2.16762 11.122 4.32015 6.09506 11.5822C-0.678513 21.3676 2.58237 32.9025 8.6795 41.3695Z" fill="white"/>
<path d="M32.0159 32.1218C30.7534 32.0715 28.9254 32.3121 27.228 33.2095C25.4052 34.1732 23.7335 35.9077 23.2022 38.6989C22.9307 40.1254 23.0877 41.7819 23.3927 43.3957C23.7049 45.0482 24.2126 46.8517 24.7816 48.649C25.3118 50.3232 25.9105 52.0387 26.4772 53.6623C26.52 53.7849 26.5626 53.9068 26.6049 54.0283C27.2145 55.7761 27.7741 57.3941 28.1916 58.7985C28.3659 59.3846 28.6737 60.1851 29.3494 60.8259C30.0927 61.5307 31.032 61.8165 32.0159 61.8165C32.868 61.8165 33.8261 61.6379 34.6242 60.9279C35.3538 60.2788 35.6675 59.4215 35.8525 58.7951C36.267 57.3916 36.8242 55.7742 37.4321 54.0267C37.4796 53.8903 37.5273 53.7531 37.5754 53.6153C38.1358 52.0056 38.7274 50.3065 39.2518 48.6483C39.8201 46.8513 40.3273 45.0478 40.6394 43.3956C40.9441 41.7819 41.1012 40.1254 40.8297 38.6989C40.2984 35.9077 38.6267 34.1732 36.8039 33.2095C35.1065 32.3121 33.2784 32.0715 32.0159 32.1218Z" fill="#AED4FF" stroke="white" stroke-width="4.03499"/>
<path d="M41.7612 33.693C40.6291 33.6494 39.0041 33.8681 37.492 34.6761C35.853 35.552 34.3561 37.1281 33.8823 39.644C33.6395 40.9336 33.7815 42.3828 34.0491 43.7637C34.323 45.1774 34.767 46.7024 35.2598 48.2112C35.6828 49.5062 36.1572 50.8347 36.6106 52.1045C36.686 52.3156 36.7608 52.5251 36.8347 52.7325C37.3599 54.2068 37.8383 55.5758 38.1942 56.7855C38.3483 57.3096 38.6292 58.0593 39.2619 58.6657C39.9644 59.3389 40.8514 59.6079 41.7612 59.6079C42.5382 59.6079 43.4454 59.4426 44.204 58.7605C44.8909 58.143 45.1771 57.3363 45.3391 56.782C45.6923 55.5733 46.1687 54.2049 46.6923 52.7309C46.7699 52.5127 46.8485 52.2921 46.9277 52.0697C47.3764 50.8104 47.8454 49.4938 48.2641 48.2105C48.7562 46.7019 49.1998 45.1771 49.4736 43.7636C49.741 42.3828 49.8831 40.9336 49.6402 39.644C49.1665 37.1281 47.6695 35.552 46.0305 34.6761C44.5183 33.8681 42.8934 33.6494 41.7612 33.693Z" stroke="white" stroke-width="4.03499"/>
<path fill-rule="evenodd" clip-rule="evenodd" d="M63.2066 14.5377C61.2289 10.9578 56.381 8.06915 51.0877 7.78579C45.8737 7.50667 40.2149 9.75215 36.3801 16.3314C32.5455 9.78379 26.8969 7.54847 21.6918 7.82686C16.3987 8.10995 11.5508 10.9959 9.57304 14.5725C5.13648 22.5958 7.30066 31.7544 12.8072 39.3019C18.3141 46.8499 27.2 52.8459 36.3385 54.5805L36.3899 54.5903L36.4412 54.5805C45.5798 52.8442 54.4657 46.8431 59.9725 39.2887C65.479 31.7346 67.643 22.5683 63.2066 14.5377ZM55.1837 39.1586C50.7648 46.1297 43.4052 52.2324 36.3898 54.0264C29.3743 52.234 22.0148 46.1366 17.5959 39.1714C13.1528 32.1681 11.7657 24.4398 16.451 19.353C19.4775 16.0671 23.5034 15.2685 27.2384 15.9101C30.9835 16.5535 34.3997 18.6401 36.1672 21.0694L36.3898 21.3752L36.6122 21.0692C38.3799 18.6375 41.7964 16.5416 45.5416 15.8906C49.2765 15.2413 53.3022 16.0334 56.3284 19.3221C61.0139 24.414 59.6268 32.1491 55.1837 39.1586Z" fill="#FF7F50"/>
<path fill-rule="evenodd" clip-rule="evenodd" d="M37.0706 33.544C38.7965 32.6217 40.6303 32.366 41.945 32.4085C43.2596 32.366 45.0934 32.6217 46.8193 33.544C48.7516 34.5764 50.53 36.4559 51.0856 39.4066C51.3731 40.9335 51.1959 42.5712 50.9177 44.0078C50.6291 45.4979 50.1668 47.0807 49.6683 48.6088C49.2439 49.9099 48.7682 51.2452 48.3198 52.5037C48.2408 52.7254 48.1626 52.9446 48.0858 53.1609C47.5614 54.6369 47.0967 55.9732 46.7551 57.1422C46.5785 57.7464 46.2111 58.8476 45.2462 59.7153C44.1637 60.6887 42.8959 60.8919 41.945 60.8919C40.7763 60.8919 39.5463 60.5406 38.5574 59.5927C37.6824 58.7542 37.322 57.746 37.1461 57.1479C36.8018 55.9774 36.335 54.6401 35.809 53.1635C35.7357 52.9578 35.6614 52.7495 35.5862 52.5391C35.1331 51.2702 34.652 49.9231 34.2231 48.6099C33.7238 47.0814 33.2612 45.4984 32.9724 44.0081C32.6939 42.5713 32.5167 40.9335 32.8043 39.4066C33.3599 36.4559 35.1384 34.5764 37.0706 33.544ZM38.6929 51.422C39.2983 53.1175 39.886 54.7634 40.3133 56.2163C40.5383 56.981 40.8908 57.5197 41.7634 57.5841C41.8215 57.5883 41.882 57.5905 41.945 57.5905C42.8257 57.5905 43.2088 57.2673 43.4772 56.5487C43.5155 56.4461 43.5515 56.3353 43.5862 56.2163C44.0136 54.7536 44.6044 53.0952 45.2127 51.3875" fill="white"/>
<path d="M36.048 40.0175C36.7383 36.3515 40.2665 35.6202 41.9444 35.7128C43.6221 35.6202 47.1504 36.3515 47.8407 40.0175C48.531 43.6834 45.0714 51.1316 43.5856 56.2163C43.3074 57.1684 42.9509 57.5905 41.9444 57.5905C40.9378 57.5905 40.5526 57.0319 40.3127 56.2163C38.8171 51.1316 35.3577 43.6834 36.048 40.0175Z" fill="#FF9393"/>
<path d="M24.8569 54.8197C25.47 56.6073 26.0187 58.2138 26.4262 59.5841C26.6292 60.2671 27.0408 61.4004 28.0304 62.3388C29.1428 63.3936 30.521 63.7822 31.8327 63.7822C32.9048 63.7822 34.3237 63.5567 35.5382 62.4763C36.6281 61.5066 37.0478 60.2701 37.2524 59.5777C37.6565 58.2093 38.2028 56.6038 38.8141 54.817L38.8843 54.6119C39.4658 52.9125 40.0939 51.0771 40.6493 49.2817C41.225 47.4207 41.7524 45.5097 42.0805 43.7387C42.3946 42.0434 42.5979 40.1231 42.2681 38.3903C41.6293 35.0345 39.5896 32.912 37.3921 31.7502C35.4215 30.7084 33.3275 30.4212 31.8327 30.47C30.3379 30.4212 28.2439 30.7084 26.2733 31.7502C24.0759 32.912 22.0361 35.0345 21.3974 38.3903C21.0676 40.1231 21.2708 42.0435 21.5851 43.739C21.9135 45.5103 22.4413 47.4214 23.0178 49.2828C23.5795 51.096 24.2153 52.9495 24.8032 54.6633L24.8569 54.8197Z" fill="white"/>
<path d="M25.0008 39.0761C25.8006 34.8736 29.8886 34.0353 31.8327 34.1414C33.7766 34.0353 37.8647 34.8736 38.6645 39.0761C39.4643 43.2785 35.4558 52.7099 33.7343 58.5386C33.412 59.63 32.9989 60.1139 31.8327 60.1139C30.6663 60.1139 30.2201 59.4736 29.9421 58.5386C28.2092 52.7099 24.201 43.2785 25.0008 39.0761Z" fill="#78B7FE"/>
<path fill-rule="evenodd" clip-rule="evenodd" d="M31.828 23.4036C29.3918 23.4036 27.417 25.3785 27.417 27.8145C27.417 30.2505 29.3918 32.2255 31.828 32.2255C34.2641 32.2255 36.2389 30.2505 36.2389 27.8145C36.2389 25.3785 34.2641 23.4036 31.828 23.4036Z" fill="#78B7FE"/>
<path fill-rule="evenodd" clip-rule="evenodd" d="M41.9449 27.8184C40.2047 27.8184 38.7942 29.229 38.7942 30.969C38.7942 32.7091 40.2047 34.1197 41.9449 34.1197C43.685 34.1197 45.0955 32.7091 45.0955 30.969C45.0955 29.229 43.685 27.8184 41.9449 27.8184Z" fill="#FF9393"/>
<path d="M36.6143 53.366H38.2747V54.6356H36.6143V53.366Z" fill="white"/>
<path fill-rule="evenodd" clip-rule="evenodd" d="M133.162 31.0662C132.51 31.5901 130.893 33.6599 130.027 34.1099C130.05 33.0843 132.37 28.2658 132.916 26.7867C133.409 25.4493 133.954 23.6047 133.321 21.6772C132.559 19.3647 130.106 17.4875 128.275 17.9713C127.741 18.1096 127.376 18.1987 127.099 18.5049C127.297 18.9894 127.419 20.8195 127.272 21.9813C127.168 22.8044 126.008 25.3637 124.545 29.2333C123.32 32.4768 122.122 35.9539 120.63 38.6457C118.346 42.7676 116.926 44.9123 115.602 46.7134C113.9 49.03 112.847 50.2664 112.301 50.4558C112.044 50.5546 111.817 50.574 111.688 50.5844C111.688 49.9512 111.748 49.1806 111.935 48.3209C112.163 47.2337 112.519 46.3442 112.846 45.6822C113.073 45.3366 114.231 43.5479 113.667 41.4427C113.132 39.4565 110.862 37.9014 109.383 37.8655C108.896 37.853 108.513 38.1122 108.266 38.2705C108.176 38.5967 108.028 39.0708 107.81 39.6341C107.316 40.8989 106.752 41.8084 105.961 43.004C105.001 44.4471 104.151 45.5639 102.499 47.7479C101.777 48.6865 101.274 49.3638 100.043 50.3576C99.6408 50.6832 98.9573 50.8173 98.6212 50.7523C97.9917 50.63 98.9975 47.9753 99.6899 46.1369C100.521 43.9626 101.5 42.6681 103.28 40.3356C103.28 40.3259 104.853 38.2608 107.524 36.4618C107.86 36.2345 108.463 35.8591 109.047 36.0464C109.502 36.195 109.749 36.6 109.878 36.8274C110.026 36.8771 110.591 37.0451 111.026 36.7486C111.56 36.3927 111.53 35.6221 111.52 35.2661C111.48 34.0305 110.699 33.1409 110.036 32.4298C109.225 31.5306 107.999 30.1863 106.119 30.0779C105.387 30.0384 104.833 30.2064 104.309 30.364C102.895 30.7993 101.994 31.6689 100.6 32.7954C100.254 33.0718 98.671 34.367 96.8116 36.7092C94.9618 39.0218 93.0034 41.4725 92.3995 45.0201C92.2121 46.1072 92.0536 47.0755 92.3995 48.2814C93.1909 51.0681 95.5049 52.1311 96.1378 52.3978C96.9292 52.7441 98.3534 53.5901 99.7785 53.1339C100.382 52.9411 101.822 52.1207 103.032 50.9756C104.135 49.9306 105.034 48.5407 105.175 48.587C105.36 48.6485 105.072 49.6168 105.937 50.6044C107.244 52.0965 109.776 53.6253 111.857 53.183C113.063 52.9266 114.029 51.9451 114.839 51.2637C116.145 50.1662 116.98 49.1413 117.455 48.3209C117.653 48.4197 117.69 48.5379 117.848 48.8337C118.086 49.2988 117.974 50.0882 118.157 50.4606C118.383 50.9168 119.888 52.2742 120.551 52.6004C120.986 52.8277 122.737 53.7069 123.429 53.0544C123.667 52.8375 123.825 52.4027 123.885 52.0668C123.944 51.76 123.914 51.4932 123.885 51.3253C124.369 51.7897 125.853 53.0946 127.969 53.1339C129.147 53.1636 130.067 52.7877 130.601 52.5603C131.105 52.353 132.055 51.8788 133.569 50.3763C134.043 49.9119 135.329 48.578 136.704 46.3837C136.981 45.9393 138.168 44.0124 139.217 41.1166C140.037 38.8531 140.334 37.8157 140.334 36.5607C140.334 33.774 138.167 30.4483 136.13 30.1567C135.184 30.0212 133.984 30.3936 133.162 31.0662Z" fill="white"/>
<path fill-rule="evenodd" clip-rule="evenodd" d="M180.009 35.464C179.445 36.1752 177.566 38.4981 174.934 41.6012C174.895 41.6406 174.786 41.7491 174.657 41.7394C174.499 41.7194 174.41 41.5418 174.37 41.4727C173.886 40.5037 174.103 39.1796 174.103 39.1796C174.321 37.9148 174.529 36.7385 174.756 35.5428C174.746 35.3554 174.697 35.276 174.637 35.2463C173.351 36.106 171.264 39.1699 169.474 42.3919C168.08 44.8917 166.338 48.7855 166.161 49.8236C165.973 50.8706 166.072 51.7802 166.18 52.3628C166.23 52.5211 166.26 52.709 166.18 52.8867C165.923 53.47 164.647 53.4506 163.875 53.2724C162.609 52.9758 161.828 52.0269 161.551 51.6516C160.097 49.6557 160.641 46.9672 161.056 45.0403C161.235 44.1902 161.472 43.4493 161.769 42.678C161.343 42.7768 160.829 42.8563 160.226 42.866C159.305 42.8756 158.534 42.7175 158 42.5495C155.833 48.894 152.273 52.877 150.028 53.0546C148.603 53.1638 147.307 52.7782 147.307 52.7782C146.951 52.6697 145.823 52.3435 144.468 51.3848C142.728 50.1692 141.867 49.3882 141.184 47.9257C140.551 46.5718 140.66 45.3465 140.818 43.8246C141.165 40.3462 142.589 37.7862 143.133 36.8773C144.725 34.2089 148.929 28.5458 152.53 29.4851C153.796 29.8113 155.557 30.9178 155.686 31.0069C156.664 31.6594 157.377 32.3512 157.851 32.855C158.514 33.5565 158.9 34.5448 158.544 35.0984C158.484 35.2069 158.306 35.4439 157.871 35.5725C157.604 35.3651 157.12 35.039 156.466 34.9795C155.616 34.9007 154.973 35.3058 154.241 35.7605C153.796 36.0369 153.163 36.5014 152.53 37.2623C152.352 37.4801 152.095 37.7862 151.807 38.1719C148.208 43.0146 147.129 49.8133 148.801 50.7325C149.068 50.8706 149.503 50.9301 150.275 50.5547C151.244 49.8726 153.084 48.3999 154.37 45.8607C155.339 43.9434 155.606 42.1838 155.686 41.087C155.458 40.9585 155.131 40.7214 154.835 40.3462C154.676 40.1484 154.112 39.4366 154.172 38.4483C154.172 38.3301 154.281 36.8476 155.468 36.3631C156.477 35.9478 157.614 36.5214 158.159 37.3017C158.534 37.8657 158.564 38.458 158.554 38.7254C158.594 39.1899 158.633 39.6543 158.663 40.1188C159.058 40.2369 160.562 40.6523 162.125 39.901C162.312 39.8119 162.797 39.5651 163.282 39.1208L163.094 39.6343C163.114 39.5853 163.143 39.5355 163.163 39.4863C163.915 37.836 164.429 36.4026 165.448 33.5565C165.547 33.2897 165.755 32.6669 165.726 31.857C165.705 31.2046 165.528 30.6807 165.389 30.3448C165.685 30.2557 166.131 30.1665 166.655 30.1865C168.485 30.246 169.771 31.5011 170.117 31.9752C171.522 33.8827 171.304 34.6733 171.808 34.7818C171.987 34.8213 172.135 34.6436 172.164 34.6042C172.867 33.5468 173.886 32.7464 174.727 31.7975C175.162 31.3034 176.517 29.9494 177.902 30.078C179.158 30.1865 180.325 31.4416 180.741 33.2206C180.78 33.3982 180.76 33.665 180.701 33.9815C180.573 34.7224 180.196 35.2166 180.009 35.464Z" fill="white"/>
<path fill-rule="evenodd" clip-rule="evenodd" d="M91.3265 18.2804C96.4614 18.1166 100.826 17.6425 105.607 17.2921C105.986 17.2955 107.097 17.2015 107.503 17.6998C108.018 18.3308 107.848 19.2936 106.988 19.8485C105.066 20.4643 103.005 20.973 100.435 21.3483C98.8106 21.5847 97.1677 21.9357 95.7772 21.9862C95.7862 22.2219 96.3867 23.0837 95.0046 26.65C92.9631 31.9192 88.61 40.8679 86.9166 46.3837C86.4933 47.7618 85.8859 48.8546 85.5358 52.6018C85.3096 52.91 84.9431 52.9778 84.4436 53.1375C83.9835 53.2839 83.4412 53.1789 82.9106 52.9633C81.1688 52.2556 79.5799 50.5637 79.3329 48.2989C79.1876 46.9698 79.5999 45.987 79.8275 45.3132C80.6375 42.9171 84.1344 34.9573 89.0693 22.9718C86.8433 22.9172 85.2267 22.9469 83.0013 22.8923C82.6499 22.8729 80.6355 22.611 79.4567 21.4305C78.1306 20.1029 78.4205 18.4352 78.426 18.1366C82.479 18.2659 86.8149 18.4241 91.3265 18.2804Z" fill="white"/>
<mask id="mask0_1110_26391" style="mask-type:luminance" maskUnits="userSpaceOnUse" x="69" y="8" width="121" height="54">
<path d="M184.964 13.0154H74.124V57.6438H184.964V13.0154Z" fill="white" stroke="white" stroke-width="8.38573"/>
<path fill-rule="evenodd" clip-rule="evenodd" d="M133.162 31.0662C132.51 31.5901 130.893 33.6599 130.027 34.1099C130.05 33.0843 132.37 28.2658 132.916 26.7867C133.409 25.4493 133.954 23.6047 133.321 21.6772C132.559 19.3647 130.106 17.4875 128.275 17.9713C127.741 18.1096 127.376 18.1987 127.099 18.5049C127.297 18.9894 127.419 20.8195 127.272 21.9813C127.168 22.8044 126.008 25.3637 124.545 29.2333C123.32 32.4768 122.122 35.9539 120.63 38.6457C118.346 42.7676 116.926 44.9123 115.602 46.7134C113.9 49.03 112.847 50.2664 112.301 50.4558C112.044 50.5546 111.817 50.574 111.688 50.5844C111.688 49.9512 111.748 49.1806 111.935 48.3209C112.163 47.2337 112.519 46.3442 112.846 45.6822C113.073 45.3366 114.231 43.5479 113.667 41.4427C113.132 39.4565 110.862 37.9014 109.383 37.8655C108.896 37.853 108.513 38.1122 108.266 38.2705C108.176 38.5967 108.028 39.0708 107.81 39.6341C107.316 40.8989 106.752 41.8084 105.961 43.004C105.001 44.4471 104.151 45.5639 102.499 47.7479C101.777 48.6865 101.274 49.3638 100.043 50.3576C99.6408 50.6832 98.9573 50.8173 98.6212 50.7523C97.9917 50.63 98.9975 47.9753 99.6899 46.1369C100.521 43.9626 101.5 42.6681 103.28 40.3356C103.28 40.3259 104.853 38.2608 107.524 36.4618C107.86 36.2345 108.463 35.8591 109.047 36.0464C109.502 36.195 109.749 36.6 109.878 36.8274C110.026 36.8771 110.591 37.0451 111.026 36.7486C111.56 36.3927 111.53 35.6221 111.52 35.2661C111.48 34.0305 110.699 33.1409 110.036 32.4298C109.225 31.5306 107.999 30.1863 106.119 30.0779C105.387 30.0384 104.833 30.2064 104.309 30.364C102.895 30.7993 101.994 31.6689 100.6 32.7954C100.254 33.0718 98.671 34.367 96.8116 36.7092C94.9618 39.0218 93.0034 41.4725 92.3995 45.0201C92.2121 46.1072 92.0536 47.0755 92.3995 48.2814C93.1909 51.0681 95.5049 52.1311 96.1378 52.3978C96.9292 52.7441 98.3534 53.5901 99.7785 53.1339C100.382 52.9411 101.822 52.1207 103.032 50.9756C104.135 49.9306 105.034 48.5407 105.175 48.587C105.36 48.6485 105.072 49.6168 105.937 50.6044C107.244 52.0966 109.776 53.6253 111.857 53.183C113.063 52.9266 114.029 51.9451 114.839 51.2637C116.145 50.1662 116.98 49.1413 117.455 48.3209C117.653 48.4197 117.69 48.5379 117.848 48.8337C118.086 49.2988 117.974 50.0882 118.157 50.4606C118.383 50.9168 119.888 52.2742 120.551 52.6004C120.986 52.8277 122.737 53.7069 123.429 53.0544C123.667 52.8375 123.825 52.4027 123.885 52.0668C123.944 51.76 123.914 51.4932 123.885 51.3253C124.369 51.7897 125.853 53.0946 127.969 53.1339C129.147 53.1636 130.067 52.7877 130.601 52.5603C131.105 52.353 132.055 51.8788 133.569 50.3763C134.043 49.9119 135.329 48.578 136.704 46.3837C136.981 45.9393 138.168 44.0124 139.217 41.1166C140.037 38.8531 140.334 37.8157 140.334 36.5607C140.334 33.774 138.167 30.4483 136.13 30.1567C135.184 30.0212 133.984 30.3936 133.162 31.0662Z" stroke="white" stroke-width="8.38573"/>
<path fill-rule="evenodd" clip-rule="evenodd" d="M180.009 35.464C179.445 36.1752 177.566 38.4981 174.934 41.6012C174.895 41.6406 174.786 41.7491 174.657 41.7394C174.499 41.7194 174.41 41.5418 174.37 41.4727C173.886 40.5037 174.103 39.1796 174.103 39.1796C174.321 37.9148 174.529 36.7385 174.756 35.5428C174.746 35.3554 174.697 35.276 174.637 35.2463C173.351 36.106 171.264 39.1699 169.474 42.3919C168.08 44.8917 166.338 48.7855 166.161 49.8236C165.973 50.8706 166.072 51.7802 166.18 52.3628C166.23 52.5211 166.26 52.709 166.18 52.8867C165.923 53.47 164.647 53.4506 163.875 53.2724C162.609 52.9758 161.828 52.0269 161.551 51.6516C160.097 49.6557 160.641 46.9672 161.056 45.0403C161.235 44.1902 161.472 43.4493 161.769 42.678C161.343 42.7768 160.829 42.8563 160.226 42.866C159.305 42.8756 158.534 42.7175 158 42.5495C155.833 48.894 152.273 52.877 150.028 53.0546C148.603 53.1638 147.307 52.7782 147.307 52.7782C146.951 52.6697 145.823 52.3435 144.468 51.3848C142.728 50.1692 141.867 49.3882 141.184 47.9257C140.551 46.5718 140.66 45.3465 140.818 43.8246C141.165 40.3462 142.589 37.7862 143.133 36.8773C144.725 34.2089 148.929 28.5458 152.53 29.4851C153.796 29.8113 155.557 30.9178 155.686 31.0069C156.664 31.6594 157.377 32.3512 157.851 32.855C158.514 33.5565 158.9 34.5448 158.544 35.0984C158.484 35.2069 158.306 35.4439 157.871 35.5725C157.604 35.3651 157.12 35.039 156.466 34.9795C155.616 34.9007 154.973 35.3058 154.241 35.7605C153.796 36.0369 153.163 36.5014 152.53 37.2623C152.352 37.4801 152.095 37.7862 151.807 38.1719C148.208 43.0146 147.129 49.8133 148.801 50.7325C149.068 50.8706 149.503 50.9301 150.275 50.5547C151.244 49.8726 153.084 48.3999 154.37 45.8607C155.339 43.9434 155.606 42.1838 155.686 41.087C155.458 40.9585 155.131 40.7214 154.835 40.3462C154.676 40.1484 154.112 39.4366 154.172 38.4483C154.172 38.3301 154.281 36.8476 155.468 36.3631C156.477 35.9478 157.614 36.5214 158.159 37.3017C158.534 37.8657 158.564 38.458 158.554 38.7254C158.594 39.1899 158.633 39.6543 158.663 40.1188C159.058 40.2369 160.562 40.6523 162.125 39.901C162.312 39.8119 162.797 39.5651 163.282 39.1208L163.094 39.6343C163.114 39.5853 163.143 39.5355 163.163 39.4863C163.915 37.836 164.429 36.4026 165.448 33.5565C165.547 33.2897 165.755 32.6669 165.726 31.857C165.705 31.2046 165.528 30.6807 165.389 30.3448C165.685 30.2557 166.131 30.1665 166.655 30.1865C168.485 30.246 169.771 31.5011 170.117 31.9752C171.522 33.8827 171.304 34.6733 171.808 34.7818C171.987 34.8213 172.135 34.6436 172.164 34.6042C172.867 33.5468 173.886 32.7464 174.727 31.7975C175.162 31.3034 176.517 29.9494 177.902 30.078C179.158 30.1865 180.325 31.4416 180.741 33.2206C180.78 33.3982 180.76 33.665 180.701 33.9815C180.573 34.7224 180.196 35.2166 180.009 35.464Z" stroke="white" stroke-width="8.38573"/>
<path fill-rule="evenodd" clip-rule="evenodd" d="M91.3265 18.2804C96.4614 18.1166 100.826 17.6425 105.607 17.2921C105.986 17.2955 107.097 17.2015 107.503 17.6998C108.018 18.3308 107.848 19.2936 106.988 19.8485C105.066 20.4643 103.005 20.973 100.435 21.3483C98.8106 21.5847 97.1677 21.9357 95.7772 21.9862C95.7862 22.2219 96.3867 23.0837 95.0046 26.65C92.9631 31.9192 88.61 40.8679 86.9166 46.3837C86.4933 47.7618 85.8859 48.8546 85.5358 52.6018C85.3096 52.91 84.9431 52.9778 84.4436 53.1375C83.9835 53.2839 83.4412 53.1789 82.9106 52.9633C81.1688 52.2556 79.5799 50.5637 79.3329 48.2989C79.1876 46.9698 79.5999 45.987 79.8275 45.3132C80.6375 42.9171 84.1344 34.9573 89.0693 22.9718C86.8433 22.9172 85.2267 22.9469 83.0013 22.8923C82.6499 22.8729 80.6355 22.611 79.4567 21.4305C78.1306 20.1029 78.4205 18.4352 78.426 18.1366C82.479 18.2659 86.8149 18.4241 91.3265 18.2804Z" stroke="white" stroke-width="8.38573"/>
</mask>
<g mask="url(#mask0_1110_26391)">
<path fill-rule="evenodd" clip-rule="evenodd" d="M133.162 31.0662C132.51 31.5901 130.893 33.6599 130.027 34.1099C130.05 33.0843 132.37 28.2658 132.916 26.7867C133.409 25.4493 133.954 23.6047 133.321 21.6772C132.559 19.3647 130.106 17.4875 128.275 17.9713C127.741 18.1096 127.376 18.1987 127.099 18.5049C127.297 18.9894 127.419 20.8195 127.272 21.9813C127.168 22.8044 126.008 25.3637 124.545 29.2333C123.32 32.4768 122.122 35.9539 120.63 38.6457C118.346 42.7676 116.926 44.9123 115.602 46.7134C113.9 49.03 112.847 50.2664 112.301 50.4558C112.044 50.5546 111.817 50.574 111.688 50.5844C111.688 49.9512 111.748 49.1806 111.935 48.3209C112.163 47.2337 112.519 46.3442 112.846 45.6822C113.073 45.3366 114.231 43.5479 113.667 41.4427C113.132 39.4565 110.862 37.9014 109.383 37.8655C108.896 37.853 108.513 38.1122 108.266 38.2705C108.176 38.5967 108.028 39.0708 107.81 39.6341C107.316 40.8989 106.752 41.8084 105.961 43.004C105.001 44.4471 104.151 45.5639 102.499 47.7479C101.777 48.6865 101.274 49.3638 100.043 50.3576C99.6408 50.6832 98.9573 50.8173 98.6212 50.7523C97.9917 50.63 98.9975 47.9753 99.6899 46.1369C100.521 43.9626 101.5 42.6681 103.28 40.3356C103.28 40.3259 104.853 38.2608 107.524 36.4618C107.86 36.2345 108.463 35.8591 109.047 36.0464C109.502 36.195 109.749 36.6 109.878 36.8274C110.026 36.8771 110.591 37.0451 111.026 36.7486C111.56 36.3927 111.53 35.6221 111.52 35.2661C111.48 34.0305 110.699 33.1409 110.036 32.4298C109.225 31.5306 107.999 30.1863 106.119 30.0779C105.387 30.0384 104.833 30.2064 104.309 30.364C102.895 30.7993 101.994 31.6689 100.6 32.7954C100.254 33.0718 98.671 34.367 96.8116 36.7092C94.9618 39.0218 93.0034 41.4725 92.3995 45.0201C92.2121 46.1072 92.0536 47.0755 92.3995 48.2814C93.1909 51.0681 95.5049 52.1311 96.1378 52.3978C96.9292 52.7441 98.3534 53.5901 99.7785 53.1339C100.382 52.9411 101.822 52.1207 103.032 50.9756C104.135 49.9306 105.034 48.5407 105.175 48.587C105.36 48.6485 105.072 49.6168 105.937 50.6044C107.244 52.0966 109.776 53.6253 111.857 53.183C113.063 52.9266 114.029 51.9451 114.839 51.2637C116.145 50.1662 116.98 49.1413 117.455 48.3209C117.653 48.4197 117.69 48.5379 117.848 48.8337C118.086 49.2988 117.974 50.0882 118.157 50.4606C118.383 50.9168 119.888 52.2742 120.551 52.6004C120.986 52.8277 122.737 53.7069 123.429 53.0544C123.667 52.8375 123.825 52.4027 123.885 52.0668C123.944 51.76 123.914 51.4932 123.885 51.3253C124.369 51.7897 125.853 53.0946 127.969 53.1339C129.147 53.1636 130.067 52.7877 130.601 52.5603C131.105 52.353 132.055 51.8788 133.569 50.3763C134.043 49.9119 135.329 48.578 136.704 46.3837C136.981 45.9393 138.168 44.0124 139.217 41.1166C140.037 38.8531 140.334 37.8157 140.334 36.5607C140.334 33.774 138.167 30.4483 136.13 30.1567C135.184 30.0212 133.984 30.3936 133.162 31.0662Z" stroke="white" stroke-width="8.38573"/>
</g>
<mask id="mask1_1110_26391" style="mask-type:luminance" maskUnits="userSpaceOnUse" x="69" y="8" width="121" height="54">
<path d="M184.964 13.0154H74.124V57.6438H184.964V13.0154Z" fill="white" stroke="white" stroke-width="8.38573"/>
<path fill-rule="evenodd" clip-rule="evenodd" d="M133.162 31.0662C132.51 31.5901 130.893 33.6599 130.027 34.1099C130.05 33.0843 132.37 28.2658 132.916 26.7867C133.409 25.4493 133.954 23.6047 133.321 21.6772C132.559 19.3647 130.106 17.4875 128.275 17.9713C127.741 18.1096 127.376 18.1987 127.099 18.5049C127.297 18.9894 127.419 20.8195 127.272 21.9813C127.168 22.8044 126.008 25.3637 124.545 29.2333C123.32 32.4768 122.122 35.9539 120.63 38.6457C118.346 42.7676 116.926 44.9123 115.602 46.7134C113.9 49.03 112.847 50.2664 112.301 50.4558C112.044 50.5546 111.817 50.574 111.688 50.5844C111.688 49.9512 111.748 49.1806 111.935 48.3209C112.163 47.2337 112.519 46.3442 112.846 45.6822C113.073 45.3366 114.231 43.5479 113.667 41.4427C113.132 39.4565 110.862 37.9014 109.383 37.8655C108.896 37.853 108.513 38.1122 108.266 38.2705C108.176 38.5967 108.028 39.0708 107.81 39.6341C107.316 40.8989 106.752 41.8084 105.961 43.004C105.001 44.4471 104.151 45.5639 102.499 47.7479C101.777 48.6865 101.274 49.3638 100.043 50.3576C99.6408 50.6832 98.9573 50.8173 98.6212 50.7523C97.9917 50.63 98.9975 47.9753 99.6899 46.1369C100.521 43.9626 101.5 42.6681 103.28 40.3356C103.28 40.3259 104.853 38.2608 107.524 36.4618C107.86 36.2345 108.463 35.8591 109.047 36.0464C109.502 36.195 109.749 36.6 109.878 36.8274C110.026 36.8771 110.591 37.0451 111.026 36.7486C111.56 36.3927 111.53 35.6221 111.52 35.2661C111.48 34.0305 110.699 33.1409 110.036 32.4298C109.225 31.5306 107.999 30.1863 106.119 30.0779C105.387 30.0384 104.833 30.2064 104.309 30.364C102.895 30.7993 101.994 31.6689 100.6 32.7954C100.254 33.0718 98.671 34.367 96.8116 36.7092C94.9618 39.0218 93.0034 41.4725 92.3995 45.0201C92.2121 46.1072 92.0536 47.0755 92.3995 48.2814C93.1909 51.0681 95.5049 52.1311 96.1378 52.3978C96.9292 52.7441 98.3534 53.5901 99.7785 53.1339C100.382 52.9411 101.822 52.1207 103.032 50.9756C104.135 49.9306 105.034 48.5407 105.175 48.587C105.36 48.6485 105.072 49.6168 105.937 50.6044C107.244 52.0966 109.776 53.6253 111.857 53.183C113.063 52.9266 114.029 51.9451 114.839 51.2637C116.145 50.1662 116.98 49.1413 117.455 48.3209C117.653 48.4197 117.69 48.5379 117.848 48.8337C118.086 49.2988 117.974 50.0882 118.157 50.4606C118.383 50.9168 119.888 52.2742 120.551 52.6004C120.986 52.8277 122.737 53.7069 123.429 53.0544C123.667 52.8375 123.825 52.4027 123.885 52.0668C123.944 51.76 123.914 51.4932 123.885 51.3253C124.369 51.7897 125.853 53.0946 127.969 53.1339C129.147 53.1636 130.067 52.7877 130.601 52.5603C131.105 52.353 132.055 51.8788 133.569 50.3763C134.043 49.9119 135.329 48.578 136.704 46.3837C136.981 45.9393 138.168 44.0124 139.217 41.1166C140.037 38.8531 140.334 37.8157 140.334 36.5607C140.334 33.774 138.167 30.4483 136.13 30.1567C135.184 30.0212 133.984 30.3936 133.162 31.0662Z" stroke="white" stroke-width="8.38573"/>
<path fill-rule="evenodd" clip-rule="evenodd" d="M180.009 35.464C179.445 36.1752 177.566 38.4981 174.934 41.6012C174.895 41.6406 174.786 41.7491 174.657 41.7394C174.499 41.7194 174.41 41.5418 174.37 41.4727C173.886 40.5037 174.103 39.1796 174.103 39.1796C174.321 37.9148 174.529 36.7385 174.756 35.5428C174.746 35.3554 174.697 35.276 174.637 35.2463C173.351 36.106 171.264 39.1699 169.474 42.3919C168.08 44.8917 166.338 48.7855 166.161 49.8236C165.973 50.8706 166.072 51.7802 166.18 52.3628C166.23 52.5211 166.26 52.709 166.18 52.8867C165.923 53.47 164.647 53.4506 163.875 53.2724C162.609 52.9758 161.828 52.0269 161.551 51.6516C160.097 49.6557 160.641 46.9672 161.056 45.0403C161.235 44.1902 161.472 43.4493 161.769 42.678C161.343 42.7768 160.829 42.8563 160.226 42.866C159.305 42.8756 158.534 42.7175 158 42.5495C155.833 48.894 152.273 52.877 150.028 53.0546C148.603 53.1638 147.307 52.7782 147.307 52.7782C146.951 52.6697 145.823 52.3435 144.468 51.3848C142.728 50.1692 141.867 49.3882 141.184 47.9257C140.551 46.5718 140.66 45.3465 140.818 43.8246C141.165 40.3462 142.589 37.7862 143.133 36.8773C144.725 34.2089 148.929 28.5458 152.53 29.4851C153.796 29.8113 155.557 30.9178 155.686 31.0069C156.664 31.6594 157.377 32.3512 157.851 32.855C158.514 33.5565 158.9 34.5448 158.544 35.0984C158.484 35.2069 158.306 35.4439 157.871 35.5725C157.604 35.3651 157.12 35.039 156.466 34.9795C155.616 34.9007 154.973 35.3058 154.241 35.7605C153.796 36.0369 153.163 36.5014 152.53 37.2623C152.352 37.4801 152.095 37.7862 151.807 38.1719C148.208 43.0146 147.129 49.8133 148.801 50.7325C149.068 50.8706 149.503 50.9301 150.275 50.5547C151.244 49.8726 153.084 48.3999 154.37 45.8607C155.339 43.9434 155.606 42.1838 155.686 41.087C155.458 40.9585 155.131 40.7214 154.835 40.3462C154.676 40.1484 154.112 39.4366 154.172 38.4483C154.172 38.3301 154.281 36.8476 155.468 36.3631C156.477 35.9478 157.614 36.5214 158.159 37.3017C158.534 37.8657 158.564 38.458 158.554 38.7254C158.594 39.1899 158.633 39.6543 158.663 40.1188C159.058 40.2369 160.562 40.6523 162.125 39.901C162.312 39.8119 162.797 39.5651 163.282 39.1208L163.094 39.6343C163.114 39.5853 163.143 39.5355 163.163 39.4863C163.915 37.836 164.429 36.4026 165.448 33.5565C165.547 33.2897 165.755 32.6669 165.726 31.857C165.705 31.2046 165.528 30.6807 165.389 30.3448C165.685 30.2557 166.131 30.1665 166.655 30.1865C168.485 30.246 169.771 31.5011 170.117 31.9752C171.522 33.8827 171.304 34.6733 171.808 34.7818C171.987 34.8213 172.135 34.6436 172.164 34.6042C172.867 33.5468 173.886 32.7464 174.727 31.7975C175.162 31.3034 176.517 29.9494 177.902 30.078C179.158 30.1865 180.325 31.4416 180.741 33.2206C180.78 33.3982 180.76 33.665 180.701 33.9815C180.573 34.7224 180.196 35.2166 180.009 35.464Z" stroke="white" stroke-width="8.38573"/>
<path fill-rule="evenodd" clip-rule="evenodd" d="M91.3265 18.2804C96.4614 18.1166 100.826 17.6425 105.607 17.2921C105.986 17.2955 107.097 17.2015 107.503 17.6998C108.018 18.3308 107.848 19.2936 106.988 19.8485C105.066 20.4643 103.005 20.973 100.435 21.3483C98.8106 21.5847 97.1677 21.9357 95.7772 21.9862C95.7862 22.2219 96.3867 23.0837 95.0046 26.65C92.9631 31.9192 88.61 40.8679 86.9166 46.3837C86.4933 47.7618 85.8859 48.8546 85.5358 52.6018C85.3096 52.91 84.9431 52.9778 84.4436 53.1375C83.9835 53.2839 83.4412 53.1789 82.9106 52.9633C81.1688 52.2556 79.5799 50.5637 79.3329 48.2989C79.1876 46.9698 79.5999 45.987 79.8275 45.3132C80.6375 42.9171 84.1344 34.9573 89.0693 22.9718C86.8433 22.9172 85.2267 22.9469 83.0013 22.8923C82.6499 22.8729 80.6355 22.611 79.4567 21.4305C78.1306 20.1029 78.4205 18.4352 78.426 18.1366C82.479 18.2659 86.8149 18.4241 91.3265 18.2804Z" stroke="white" stroke-width="8.38573"/>
</mask>
<g mask="url(#mask1_1110_26391)">
<path fill-rule="evenodd" clip-rule="evenodd" d="M180.009 35.464C179.445 36.1752 177.566 38.4981 174.934 41.6012C174.895 41.6406 174.786 41.7491 174.657 41.7394C174.499 41.7194 174.41 41.5418 174.37 41.4727C173.886 40.5037 174.103 39.1796 174.103 39.1796C174.321 37.9148 174.529 36.7385 174.756 35.5428C174.746 35.3554 174.697 35.276 174.637 35.2463C173.351 36.106 171.264 39.1699 169.474 42.3919C168.08 44.8917 166.338 48.7855 166.161 49.8236C165.973 50.8706 166.072 51.7802 166.18 52.3628C166.23 52.5211 166.26 52.709 166.18 52.8867C165.923 53.47 164.647 53.4506 163.875 53.2724C162.609 52.9758 161.828 52.0269 161.551 51.6516C160.097 49.6557 160.641 46.9672 161.056 45.0403C161.235 44.1902 161.472 43.4493 161.769 42.678C161.343 42.7768 160.829 42.8563 160.226 42.866C159.305 42.8756 158.534 42.7175 158 42.5495C155.833 48.894 152.273 52.877 150.028 53.0546C148.603 53.1638 147.307 52.7782 147.307 52.7782C146.951 52.6697 145.823 52.3435 144.468 51.3848C142.728 50.1692 141.867 49.3882 141.184 47.9257C140.551 46.5718 140.66 45.3465 140.818 43.8246C141.165 40.3462 142.589 37.7862 143.133 36.8773C144.725 34.2089 148.929 28.5458 152.53 29.4851C153.796 29.8113 155.557 30.9178 155.686 31.0069C156.664 31.6594 157.377 32.3512 157.851 32.855C158.514 33.5565 158.9 34.5448 158.544 35.0984C158.484 35.2069 158.306 35.4439 157.871 35.5725C157.604 35.3651 157.12 35.039 156.466 34.9795C155.616 34.9007 154.973 35.3058 154.241 35.7605C153.796 36.0369 153.163 36.5014 152.53 37.2623C152.352 37.4801 152.095 37.7862 151.807 38.1719C148.208 43.0146 147.129 49.8133 148.801 50.7325C149.068 50.8706 149.503 50.9301 150.275 50.5547C151.244 49.8726 153.084 48.3999 154.37 45.8607C155.339 43.9434 155.606 42.1838 155.686 41.087C155.458 40.9585 155.131 40.7214 154.835 40.3462C154.676 40.1484 154.112 39.4366 154.172 38.4483C154.172 38.3301 154.281 36.8476 155.468 36.3631C156.477 35.9478 157.614 36.5214 158.159 37.3017C158.534 37.8657 158.564 38.458 158.554 38.7254C158.594 39.1899 158.633 39.6543 158.663 40.1188C159.058 40.2369 160.562 40.6523 162.125 39.901C162.312 39.8119 162.797 39.5651 163.282 39.1208L163.094 39.6343C163.114 39.5853 163.143 39.5355 163.163 39.4863C163.915 37.836 164.429 36.4026 165.448 33.5565C165.547 33.2897 165.755 32.6669 165.726 31.857C165.705 31.2046 165.528 30.6807 165.389 30.3448C165.685 30.2557 166.131 30.1665 166.655 30.1865C168.485 30.246 169.771 31.5011 170.117 31.9752C171.522 33.8827 171.304 34.6733 171.808 34.7818C171.987 34.8213 172.135 34.6436 172.164 34.6042C172.867 33.5468 173.886 32.7464 174.727 31.7975C175.162 31.3034 176.517 29.9494 177.902 30.078C179.158 30.1865 180.325 31.4416 180.741 33.2206C180.78 33.3982 180.76 33.665 180.701 33.9815C180.573 34.7224 180.196 35.2166 180.009 35.464Z" stroke="white" stroke-width="8.38573"/>
</g>
<mask id="mask2_1110_26391" style="mask-type:luminance" maskUnits="userSpaceOnUse" x="69" y="8" width="121" height="54">
<path d="M184.964 13.0154H74.124V57.6438H184.964V13.0154Z" fill="white" stroke="white" stroke-width="8.38573"/>
<path fill-rule="evenodd" clip-rule="evenodd" d="M133.162 31.0662C132.51 31.5901 130.893 33.6599 130.027 34.1099C130.05 33.0843 132.37 28.2658 132.916 26.7867C133.409 25.4493 133.954 23.6047 133.321 21.6772C132.559 19.3647 130.106 17.4875 128.275 17.9713C127.741 18.1096 127.376 18.1987 127.099 18.5049C127.297 18.9894 127.419 20.8195 127.272 21.9813C127.168 22.8044 126.008 25.3637 124.545 29.2333C123.32 32.4768 122.122 35.9539 120.63 38.6457C118.346 42.7676 116.926 44.9123 115.602 46.7134C113.9 49.03 112.847 50.2664 112.301 50.4558C112.044 50.5546 111.817 50.574 111.688 50.5844C111.688 49.9512 111.748 49.1806 111.935 48.3209C112.163 47.2337 112.519 46.3442 112.846 45.6822C113.073 45.3366 114.231 43.5479 113.667 41.4427C113.132 39.4565 110.862 37.9014 109.383 37.8655C108.896 37.853 108.513 38.1122 108.266 38.2705C108.176 38.5967 108.028 39.0708 107.81 39.6341C107.316 40.8989 106.752 41.8084 105.961 43.004C105.001 44.4471 104.151 45.5639 102.499 47.7479C101.777 48.6865 101.274 49.3638 100.043 50.3576C99.6408 50.6832 98.9573 50.8173 98.6212 50.7523C97.9917 50.63 98.9975 47.9753 99.6899 46.1369C100.521 43.9626 101.5 42.6681 103.28 40.3356C103.28 40.3259 104.853 38.2608 107.524 36.4618C107.86 36.2345 108.463 35.8591 109.047 36.0464C109.502 36.195 109.749 36.6 109.878 36.8274C110.026 36.8771 110.591 37.0451 111.026 36.7486C111.56 36.3927 111.53 35.6221 111.52 35.2661C111.48 34.0305 110.699 33.1409 110.036 32.4298C109.225 31.5306 107.999 30.1863 106.119 30.0779C105.387 30.0384 104.833 30.2064 104.309 30.364C102.895 30.7993 101.994 31.6689 100.6 32.7954C100.254 33.0718 98.671 34.367 96.8116 36.7092C94.9618 39.0218 93.0034 41.4725 92.3995 45.0201C92.2121 46.1072 92.0536 47.0755 92.3995 48.2814C93.1909 51.0681 95.5049 52.1311 96.1378 52.3978C96.9292 52.7441 98.3534 53.5901 99.7785 53.1339C100.382 52.9411 101.822 52.1207 103.032 50.9756C104.135 49.9306 105.034 48.5407 105.175 48.587C105.36 48.6485 105.072 49.6168 105.937 50.6044C107.244 52.0966 109.776 53.6253 111.857 53.183C113.063 52.9266 114.029 51.9451 114.839 51.2637C116.145 50.1662 116.98 49.1413 117.455 48.3209C117.653 48.4197 117.69 48.5379 117.848 48.8337C118.086 49.2988 117.974 50.0882 118.157 50.4606C118.383 50.9168 119.888 52.2742 120.551 52.6004C120.986 52.8277 122.737 53.7069 123.429 53.0544C123.667 52.8375 123.825 52.4027 123.885 52.0668C123.944 51.76 123.914 51.4932 123.885 51.3253C124.369 51.7897 125.853 53.0946 127.969 53.1339C129.147 53.1636 130.067 52.7877 130.601 52.5603C131.105 52.353 132.055 51.8788 133.569 50.3763C134.043 49.9119 135.329 48.578 136.704 46.3837C136.981 45.9393 138.168 44.0124 139.217 41.1166C140.037 38.8531 140.334 37.8157 140.334 36.5607C140.334 33.774 138.167 30.4483 136.13 30.1567C135.184 30.0212 133.984 30.3936 133.162 31.0662Z" stroke="white" stroke-width="8.38573"/>
<path fill-rule="evenodd" clip-rule="evenodd" d="M180.009 35.464C179.445 36.1752 177.566 38.4981 174.934 41.6012C174.895 41.6406 174.786 41.7491 174.657 41.7394C174.499 41.7194 174.41 41.5418 174.37 41.4727C173.886 40.5037 174.103 39.1796 174.103 39.1796C174.321 37.9148 174.529 36.7385 174.756 35.5428C174.746 35.3554 174.697 35.276 174.637 35.2463C173.351 36.106 171.264 39.1699 169.474 42.3919C168.08 44.8917 166.338 48.7855 166.161 49.8236C165.973 50.8706 166.072 51.7802 166.18 52.3628C166.23 52.5211 166.26 52.709 166.18 52.8867C165.923 53.47 164.647 53.4506 163.875 53.2724C162.609 52.9758 161.828 52.0269 161.551 51.6516C160.097 49.6557 160.641 46.9672 161.056 45.0403C161.235 44.1902 161.472 43.4493 161.769 42.678C161.343 42.7768 160.829 42.8563 160.226 42.866C159.305 42.8756 158.534 42.7175 158 42.5495C155.833 48.894 152.273 52.877 150.028 53.0546C148.603 53.1638 147.307 52.7782 147.307 52.7782C146.951 52.6697 145.823 52.3435 144.468 51.3848C142.728 50.1692 141.867 49.3882 141.184 47.9257C140.551 46.5718 140.66 45.3465 140.818 43.8246C141.165 40.3462 142.589 37.7862 143.133 36.8773C144.725 34.2089 148.929 28.5458 152.53 29.4851C153.796 29.8113 155.557 30.9178 155.686 31.0069C156.664 31.6594 157.377 32.3512 157.851 32.855C158.514 33.5565 158.9 34.5448 158.544 35.0984C158.484 35.2069 158.306 35.4439 157.871 35.5725C157.604 35.3651 157.12 35.039 156.466 34.9795C155.616 34.9007 154.973 35.3058 154.241 35.7605C153.796 36.0369 153.163 36.5014 152.53 37.2623C152.352 37.4801 152.095 37.7862 151.807 38.1719C148.208 43.0146 147.129 49.8133 148.801 50.7325C149.068 50.8706 149.503 50.9301 150.275 50.5547C151.244 49.8726 153.084 48.3999 154.37 45.8607C155.339 43.9434 155.606 42.1838 155.686 41.087C155.458 40.9585 155.131 40.7214 154.835 40.3462C154.676 40.1484 154.112 39.4366 154.172 38.4483C154.172 38.3301 154.281 36.8476 155.468 36.3631C156.477 35.9478 157.614 36.5214 158.159 37.3017C158.534 37.8657 158.564 38.458 158.554 38.7254C158.594 39.1899 158.633 39.6543 158.663 40.1188C159.058 40.2369 160.562 40.6523 162.125 39.901C162.312 39.8119 162.797 39.5651 163.282 39.1208L163.094 39.6343C163.114 39.5853 163.143 39.5355 163.163 39.4863C163.915 37.836 164.429 36.4026 165.448 33.5565C165.547 33.2897 165.755 32.6669 165.726 31.857C165.705 31.2046 165.528 30.6807 165.389 30.3448C165.685 30.2557 166.131 30.1665 166.655 30.1865C168.485 30.246 169.771 31.5011 170.117 31.9752C171.522 33.8827 171.304 34.6733 171.808 34.7818C171.987 34.8213 172.135 34.6436 172.164 34.6042C172.867 33.5468 173.886 32.7464 174.727 31.7975C175.162 31.3034 176.517 29.9494 177.902 30.078C179.158 30.1865 180.325 31.4416 180.741 33.2206C180.78 33.3982 180.76 33.665 180.701 33.9815C180.573 34.7224 180.196 35.2166 180.009 35.464Z" stroke="white" stroke-width="8.38573"/>
<path fill-rule="evenodd" clip-rule="evenodd" d="M91.3265 18.2804C96.4614 18.1166 100.826 17.6425 105.607 17.2921C105.986 17.2955 107.097 17.2015 107.503 17.6998C108.018 18.3308 107.848 19.2936 106.988 19.8485C105.066 20.4643 103.005 20.973 100.435 21.3483C98.8106 21.5847 97.1677 21.9357 95.7772 21.9862C95.7862 22.2219 96.3867 23.0837 95.0046 26.65C92.9631 31.9192 88.61 40.8679 86.9166 46.3837C86.4933 47.7618 85.8859 48.8546 85.5358 52.6018C85.3096 52.91 84.9431 52.9778 84.4436 53.1375C83.9835 53.2839 83.4412 53.1789 82.9106 52.9633C81.1688 52.2556 79.5799 50.5637 79.3329 48.2989C79.1876 46.9698 79.5999 45.987 79.8275 45.3132C80.6375 42.9171 84.1344 34.9573 89.0693 22.9718C86.8433 22.9172 85.2267 22.9469 83.0013 22.8923C82.6499 22.8729 80.6355 22.611 79.4567 21.4305C78.1306 20.1029 78.4205 18.4352 78.426 18.1366C82.479 18.2659 86.8149 18.4241 91.3265 18.2804Z" stroke="white" stroke-width="8.38573"/>
</mask>
<g mask="url(#mask2_1110_26391)">
<path fill-rule="evenodd" clip-rule="evenodd" d="M91.3265 18.2804C96.4614 18.1166 100.826 17.6425 105.607 17.2921C105.986 17.2955 107.097 17.2015 107.503 17.6998C108.018 18.3308 107.848 19.2936 106.988 19.8485C105.066 20.4643 103.005 20.973 100.435 21.3483C98.8106 21.5847 97.1677 21.9357 95.7772 21.9862C95.7862 22.2219 96.3867 23.0837 95.0046 26.65C92.9631 31.9192 88.61 40.8679 86.9166 46.3837C86.4933 47.7618 85.8859 48.8546 85.5358 52.6018C85.3096 52.91 84.9431 52.9778 84.4436 53.1375C83.9835 53.2839 83.4412 53.1789 82.9106 52.9633C81.1688 52.2556 79.5799 50.5637 79.3329 48.2989C79.1876 46.9698 79.5999 45.987 79.8275 45.3132C80.6375 42.9171 84.1344 34.9573 89.0693 22.9718C86.8433 22.9172 85.2267 22.9469 83.0013 22.8923C82.6499 22.8729 80.6355 22.611 79.4567 21.4305C78.1306 20.1029 78.4205 18.4352 78.426 18.1366C82.479 18.2659 86.8149 18.4241 91.3265 18.2804Z" stroke="white" stroke-width="8.38573"/>
</g>
<path fill-rule="evenodd" clip-rule="evenodd" d="M132.945 40.6224C131.293 44.7042 128.939 47.4812 127.426 48.8544C127.238 49.0425 126.842 49.3784 126.239 49.5567C125.606 49.7343 124.992 49.6555 124.596 49.5663C124.389 49.5069 124.26 49.2891 124.339 49.0818C124.607 48.3306 124.913 47.54 125.289 46.799C127.831 41.6895 129.968 38.0729 132.886 34.5446C133.301 34.0408 134.311 32.7636 134.587 32.993C134.72 33.1043 134.598 34.2674 134.579 34.555C134.434 36.6692 134.091 37.7963 132.945 40.6224ZM133.162 31.0662C132.51 31.5901 130.893 33.6599 130.027 34.1099C130.05 33.0843 132.37 28.2658 132.916 26.7867C133.409 25.4493 133.954 23.6047 133.321 21.6772C132.559 19.3647 130.106 17.4875 128.275 17.9713C127.741 18.1096 127.376 18.1987 127.099 18.5049C127.297 18.9894 127.419 20.8195 127.272 21.9813C127.168 22.8044 126.008 25.3637 124.545 29.2333C123.32 32.4768 122.122 35.9539 120.63 38.6457C118.346 42.7676 116.926 44.9123 115.602 46.7134C113.9 49.03 112.847 50.2664 112.301 50.4558C112.044 50.5546 111.817 50.574 111.688 50.5844C111.688 49.9512 111.748 49.1806 111.935 48.3209C112.163 47.2337 112.519 46.3442 112.846 45.6822C113.073 45.3366 114.231 43.5479 113.667 41.4427C113.132 39.4565 110.862 37.9014 109.383 37.8655C108.896 37.853 108.513 38.1122 108.266 38.2705C108.176 38.5967 108.028 39.0708 107.81 39.6341C107.316 40.8989 106.752 41.8084 105.961 43.004C105.001 44.4471 104.151 45.5639 102.499 47.7479C101.777 48.6865 101.274 49.3638 100.043 50.3576C99.6408 50.6832 98.9573 50.8173 98.6212 50.7523C97.9917 50.63 98.9975 47.9753 99.6899 46.1369C100.521 43.9626 101.5 42.6681 103.28 40.3356C103.28 40.3259 104.853 38.2608 107.524 36.4618C107.86 36.2345 108.463 35.8591 109.047 36.0464C109.502 36.195 109.749 36.6 109.878 36.8274C110.026 36.8771 110.591 37.0451 111.026 36.7486C111.56 36.3927 111.53 35.6221 111.52 35.2661C111.48 34.0305 110.699 33.1409 110.036 32.4298C109.225 31.5306 107.999 30.1863 106.119 30.0779C105.387 30.0384 104.833 30.2064 104.309 30.364C102.895 30.7993 101.994 31.6689 100.6 32.7954C100.254 33.0718 98.671 34.367 96.8116 36.7092C94.9618 39.0218 93.0034 41.4725 92.3995 45.0201C92.2121 46.1072 92.0536 47.0755 92.3995 48.2814C93.1909 51.0681 95.5049 52.1311 96.1378 52.3978C96.9292 52.7441 98.3534 53.5901 99.7785 53.1339C100.382 52.9411 101.822 52.1207 103.032 50.9756C104.135 49.9306 105.034 48.5407 105.175 48.587C105.36 48.6485 105.072 49.6168 105.937 50.6044C107.244 52.0965 109.776 53.6253 111.857 53.183C113.063 52.9266 114.029 51.9451 114.839 51.2637C116.145 50.1662 116.98 49.1413 117.455 48.3209C117.653 48.4197 117.69 48.5379 117.848 48.8337C118.086 49.2988 117.974 50.0882 118.157 50.4606C118.383 50.9168 119.888 52.2742 120.551 52.6004C120.986 52.8277 122.737 53.7069 123.429 53.0544C123.667 52.8375 123.825 52.4027 123.885 52.0668C123.944 51.76 123.914 51.4932 123.885 51.3253C124.369 51.7897 125.853 53.0946 127.969 53.1339C129.147 53.1636 130.067 52.7877 130.601 52.5603C131.105 52.353 132.055 51.8788 133.569 50.3763C134.043 49.9119 135.329 48.578 136.704 46.3837C136.981 45.9393 138.168 44.0124 139.217 41.1166C140.037 38.8531 140.334 37.8157 140.334 36.5607C140.334 33.774 138.167 30.4483 136.13 30.1567C135.184 30.0212 133.984 30.3936 133.162 31.0662Z" fill="#FF7F50"/>
<path fill-rule="evenodd" clip-rule="evenodd" d="M180.009 35.464C179.445 36.1752 177.566 38.4981 174.934 41.6012C174.895 41.6406 174.786 41.7491 174.657 41.7394C174.499 41.7194 174.41 41.5418 174.37 41.4727C173.886 40.5037 174.103 39.1796 174.103 39.1796C174.321 37.9148 174.529 36.7385 174.756 35.5428C174.746 35.3554 174.697 35.276 174.637 35.2463C173.351 36.106 171.264 39.1699 169.474 42.3919C168.08 44.8917 166.338 48.7855 166.161 49.8236C165.973 50.8706 166.072 51.7802 166.18 52.3628C166.23 52.5211 166.26 52.709 166.18 52.8867C165.923 53.47 164.647 53.4506 163.875 53.2724C162.609 52.9758 161.828 52.0269 161.551 51.6516C160.097 49.6557 160.641 46.9672 161.056 45.0403C161.235 44.1902 161.472 43.4493 161.769 42.678C161.343 42.7768 160.829 42.8563 160.226 42.866C159.305 42.8756 158.534 42.7175 158 42.5495C155.833 48.894 152.273 52.877 150.028 53.0546C148.603 53.1638 147.307 52.7782 147.307 52.7782C146.951 52.6697 145.823 52.3435 144.468 51.3848C142.728 50.1692 141.867 49.3882 141.184 47.9257C140.551 46.5718 140.66 45.3465 140.818 43.8246C141.165 40.3462 142.589 37.7862 143.133 36.8773C144.725 34.2089 148.929 28.5458 152.53 29.4851C153.796 29.8113 155.557 30.9178 155.686 31.0069C156.664 31.6594 157.377 32.3512 157.851 32.855C158.514 33.5565 158.9 34.5448 158.544 35.0984C158.484 35.2069 158.306 35.4439 157.871 35.5725C157.604 35.3651 157.12 35.039 156.466 34.9795C155.616 34.9007 154.973 35.3058 154.241 35.7605C153.796 36.0369 153.163 36.5014 152.53 37.2623C152.352 37.4801 152.095 37.7862 151.807 38.1719C148.208 43.0146 147.129 49.8133 148.801 50.7325C149.068 50.8706 149.503 50.9301 150.275 50.5547C151.244 49.8726 153.084 48.3999 154.37 45.8607C155.339 43.9434 155.606 42.1838 155.686 41.087C155.458 40.9585 155.131 40.7214 154.835 40.3462C154.676 40.1484 154.112 39.4366 154.172 38.4483C154.172 38.3301 154.281 36.8476 155.468 36.3631C156.477 35.9478 157.614 36.5214 158.159 37.3017C158.534 37.8657 158.564 38.458 158.554 38.7254C158.594 39.1899 158.633 39.6543 158.663 40.1188C159.058 40.2369 160.562 40.6523 162.125 39.901C162.312 39.8119 162.797 39.5651 163.282 39.1208L163.094 39.6343C163.114 39.5853 163.143 39.5355 163.163 39.4863C163.915 37.836 164.429 36.4026 165.448 33.5565C165.547 33.2897 165.755 32.6669 165.726 31.857C165.705 31.2046 165.528 30.6807 165.389 30.3448C165.685 30.2557 166.131 30.1665 166.655 30.1865C168.485 30.246 169.771 31.5011 170.117 31.9752C171.522 33.8827 171.304 34.6733 171.808 34.7818C171.987 34.8213 172.135 34.6436 172.164 34.6042C172.867 33.5468 173.886 32.7464 174.727 31.7975C175.162 31.3034 176.517 29.9494 177.902 30.078C179.158 30.1865 180.325 31.4416 180.741 33.2206C180.78 33.3982 180.76 33.665 180.701 33.9815C180.573 34.7224 180.196 35.2166 180.009 35.464Z" fill="#FF7F50"/>
<path fill-rule="evenodd" clip-rule="evenodd" d="M91.3265 18.2804C96.4614 18.1166 100.826 17.6425 105.607 17.2921C105.986 17.2955 107.097 17.2015 107.503 17.6998C108.018 18.3308 107.848 19.2936 106.988 19.8485C105.066 20.4643 103.005 20.973 100.435 21.3483C98.8106 21.5847 97.1677 21.9357 95.7772 21.9862C95.7862 22.2219 96.3867 23.0837 95.0046 26.65C92.9631 31.9192 88.61 40.8679 86.9166 46.3837C86.4933 47.7618 85.8859 48.8546 85.5358 52.6018C85.3096 52.91 84.9431 52.9778 84.4436 53.1375C83.9835 53.2839 83.4412 53.1789 82.9106 52.9633C81.1688 52.2556 79.5799 50.5637 79.3329 48.2989C79.1876 46.9698 79.5999 45.987 79.8275 45.3132C80.6375 42.9171 84.1344 34.9573 89.0693 22.9718C86.8433 22.9172 85.2267 22.9469 83.0013 22.8923C82.6499 22.8729 80.6355 22.611 79.4567 21.4305C78.1306 20.1029 78.4205 18.4352 78.426 18.1366C82.479 18.2659 86.8149 18.4241 91.3265 18.2804Z" fill="#FF7F50"/>
</svg>
