<svg width="258" height="552" fill="none" xmlns="http://www.w3.org/2000/svg"><g clip-path="url(#a)"><path d="M.664 29.856C.664 14.262 11.577.664 30.093.664h196.044c10.266 0 18.047 3.08 23.262 8.292 5.216 5.213 7.937 12.633 7.937 21.453V523.25c0 15.511-12.581 28.086-28.101 28.086H28.765c-15.52 0-28.101-12.575-28.101-28.086V29.856z" fill="#D0D0D0" stroke="#DCDCDC" stroke-width="1.328"/><path d="M10.678 10.771C6.064 15.425 3.5 22.17 3.5 30.521V523.58c0 13.763 11.158 24.921 24.921 24.921h200.716c13.763 0 24.921-11.158 24.921-24.922l.442-492.725L10.678 10.77zm0 0C15.29 6.118 22.005 3.5 30.41 3.5m-19.732 7.271L30.41 3.5m0 0h196.406m-196.405 0h196.405m0 0c9.449 0 16.352 3.028 20.896 7.922M226.816 3.5l20.896 7.922m0 0c4.55 4.902 6.788 11.732 6.788 19.43l-6.788-19.43z" fill="url(#b)" stroke="#DEDEDE"/><path d="M31.112 5.779c-7.227 0-13.317 1.948-17.6 6.027-4.286 4.081-6.733 10.264-6.733 18.669v493.376c0 12.354 10.003 22.37 22.343 22.37h199.757c12.339 0 22.342-10.016 22.342-22.37V30.364c0-7.909-2.421-14.062-6.717-18.238-4.295-4.175-10.439-6.347-17.838-6.347H31.112z" fill="#000" stroke="#000" stroke-width=".443"/><rect x="80.352" y="2.461" width="98.274" height="1.992" rx=".996" fill="#EDEDED"/><path fill="#EEE" d="M218 548h5v4h-5zM34 548h5v4h-5z"/><path fill="#EDEDED" d="M254.105 47.614h3.984v5.976h-3.984zM.008 47.615h4.427v5.976H.008z"/></g><defs><radialGradient id="b" cx="0" cy="0" r="1" gradientUnits="userSpaceOnUse" gradientTransform="matrix(0 273 -125.779 0 128.779 276)"><stop stop-color="#ECECEC"/><stop offset=".056" stop-color="#F1F1F1"/><stop offset=".111" stop-color="#fff"/><stop offset=".167" stop-color="#D9D9D9"/><stop offset=".222" stop-color="#ECECEC"/><stop offset=".278" stop-color="#D2D1D1"/><stop offset=".333" stop-color="#F2F2F2"/><stop offset=".389" stop-color="#D7D7D7"/><stop offset=".444" stop-color="#C7C7C7"/><stop offset=".5" stop-color="#E4E4E4"/><stop offset=".556" stop-color="#EEE"/><stop offset=".611" stop-color="#EEE"/><stop offset=".667" stop-color="#E9E9E9"/><stop offset=".722" stop-color="#EDEDED"/><stop offset=".778" stop-color="#D8D8D8"/><stop offset=".833" stop-color="#E3E3E3"/><stop offset=".889" stop-color="#fff"/><stop offset=".944" stop-color="#F4F4F4"/><stop offset="1" stop-color="#EDEDED"/></radialGradient><clipPath id="a"><path fill="#fff" d="M0 0h258v552H0z"/></clipPath></defs></svg>