<svg width="34" height="34" fill="none" xmlns="http://www.w3.org/2000/svg"><path fill-rule="evenodd" clip-rule="evenodd" d="M12.24 29.75h9.686c1.852 0 3.5 0 4.83-.18 1.445-.198 2.904-.653 4.097-1.864 1.193-1.21 1.641-2.692 1.836-4.16.178-1.35.178-3.021.178-4.901v-3.29c0-1.88 0-3.552-.178-4.902-.195-1.467-.643-2.948-1.836-4.16-1.193-1.21-2.652-1.665-4.098-1.862-1.33-.182-2.977-.181-4.83-.181H12.075c-1.852 0-3.5 0-4.83.18-1.445.198-2.904.653-4.097 1.864-1.193 1.21-1.641 2.692-1.836 4.16-.178 1.35-.178 3.021-.178 4.902v3.289c0 1.88 0 3.552.178 4.902.195 1.467.643 2.948 1.836 4.16 1.193 1.21 2.652 1.665 4.098 1.862 1.33.182 2.977.182 4.83.181h.165zM9.678 11.03c-.977-.61-2.296-.363-2.947.555-.651.917-.387 2.156.59 2.768l8.185 5.126a2.837 2.837 0 0 0 2.986 0l8.186-5.126c.977-.612 1.24-1.851.59-2.768-.651-.918-1.97-1.166-2.947-.554l-7.322 4.585-7.321-4.585z" fill="#fff"/></svg>