<svg width="180" height="160" fill="none" xmlns="http://www.w3.org/2000/svg"><path d="M109.524 102.224h-.004c-.039.033-.088.078-.099.088l-.017.016-.071.071-.002.002.193-.177zm0 0 1.116-1.116 2.496-2.496.073-.073c1.637-1.637 2.962-2.962 4.064-3.883 1.07-.895 2.281-1.724 3.687-1.835a6.005 6.005 0 0 1 5.033 2.085c.916 1.073 1.186 2.516 1.31 3.905.128 1.431.128 3.306.128 5.621v12.708c.001.814.001 1.531-.166 2.228a6.007 6.007 0 0 1-.718 1.735c-.375.611-.883 1.118-1.459 1.692l-.117.118-29.864 29.863-.054.055c-.746.746-1.389 1.389-1.962 1.875-.605.514-1.262.969-2.07 1.232a6.003 6.003 0 0 1-3.709-.001c-.808-.263-1.465-.718-2.07-1.232-.573-.486-1.216-1.13-1.961-1.876l-.054-.054-29.677-29.682-.118-.118c-.576-.575-1.084-1.082-1.458-1.693a6.002 6.002 0 0 1-.718-1.734c-.168-.697-.167-1.415-.166-2.228V104.482c0-2.337 0-4.227.127-5.667.124-1.396.392-2.847 1.31-3.922l1.521 1.299-1.52-1.299a6 6 0 0 1 5.033-2.085c1.408.111 2.624.947 3.699 1.847 1.109.928 2.445 2.265 4.097 3.917l.073.072 20.663 20.663c.808.809 1.33 1.329 1.76 1.694.411.349.606.438.712.472.398.131.833.132 1.232.004.107-.035.301-.122.713-.467.43-.361.953-.876 1.763-1.678a7956.58 7956.58 0 0 0 17.057-16.931l.194-.177zm-.155.139h-.001c.003-.002.003-.002.001 0z" fill="url(#a)" stroke="#fff" stroke-width="4"/><path d="m23.598 97.86.004.011.004.011a21.924 21.924 0 0 1 1.254 7.665 4.077 4.077 0 0 0 1.639 3.334c1.02.757 2.469 1.049 3.852.385 7.987-3.839 12.964-9.62 15.005-16.207 2.035-6.565 1.085-13.707-2.352-20.168-1.891-3.557-4.056-5.984-5.996-8.16-.297-.333-.588-.66-.873-.984-2.134-2.432-4.006-4.835-5.357-8.791l-.007-.022a21.923 21.923 0 0 1-1.255-7.665 4.076 4.076 0 0 0-1.638-3.333c-1.02-.757-2.47-1.05-3.853-.385-7.987 3.838-12.962 9.62-15.003 16.207-2.034 6.564-1.085 13.707 2.35 20.168 1.891 3.556 4.056 5.984 5.996 8.16l.012.013c.293.328.58.65.86.97 2.135 2.432 4.008 4.835 5.358 8.792z" stroke="#fff" stroke-width="4"/><path d="M41.238 73.83c6.446 12.117 3.358 26.371-11.753 33.633-1.264.607-2.648-.482-2.626-1.884a23.926 23.926 0 0 0-1.368-8.364c-2.946-8.629-8.262-10.534-12.354-18.228C6.695 66.87 9.78 52.616 24.891 45.354c1.264-.608 2.648.482 2.625 1.884a23.923 23.923 0 0 0 1.369 8.364c2.945 8.628 8.261 10.534 12.353 18.228z" fill="url(#b)"/><path d="M167.704 78.995c-4.096 7.694-9.412 9.595-12.365 18.22a23.93 23.93 0 0 0-1.375 8.367c.022 1.4-1.363 2.489-2.623 1.881-15.108-7.274-18.184-21.533-11.73-33.641 2.869-5.387 6.331-7.934 9.166-11.935a1.056 1.056 0 0 0-.872-1.68c-1.146 0-2.292.069-3.431.205a32.324 32.324 0 0 0-5.046 1.077 22.695 22.695 0 0 0-5.716 2.492c-1.938 1.188-5.275 3.884-8.91 8L113.66 83.124l-19.638 19.642c-1.584 1.585-2.376 2.377-3.29 2.674a4 4 0 0 1-2.472 0c-.913-.297-1.705-1.089-3.29-2.673L74.19 91.984 50.6 68.4l-.036-.036a4.546 4.546 0 0 1-.03-.032l-.028-.028c-.888-.938-14.494-15.484-14.494-26.136-.002-1.007.05-2.013.155-3.014a27.36 27.36 0 0 1 4.137-11.734 26.618 26.618 0 0 1 4.157-5.079 27.981 27.981 0 0 1 3.663-2.974 27.493 27.493 0 0 1 8.629-3.868 27.567 27.567 0 0 1 21.304 3.326c.171.106.257.16.368.24.089.064.204.156.287.228.103.09.19.177.365.352l6.093 6.095c1.584 1.585 2.376 2.377 3.29 2.674a4 4 0 0 0 2.473 0c.913-.297 1.705-1.09 3.29-2.674l5.811-5.814c.15-.15.225-.225.314-.304a4.38 4.38 0 0 1 .244-.2c.094-.071.166-.119.309-.215a26.981 26.981 0 0 1 30.39.303c3.005 2.093-.448 1.917 1.487 5.027l.019.028a.255.255 0 0 1-.036.323.272.272 0 0 1-.293.06c-.917-.367-.029.029-.118.017-1.655-.31-.352-.727-2.035-.727-.326 0 2.365 3.13 2.035 3.142-5.84.192-11.609 1.702-16.184 5.335-1.704 1.331-3.092 3.42-4.423 5.125l-19.72 19.719-.048.049a4 4 0 0 1-5.616-.002l-.049-.049-1.016-1.012-11.468-11.468-5.193-5.197a5.957 5.957 0 0 1-.162-.165c-.096-.103-.035-.034-.125-.142-.046-.054-.293-.368-.787-.995a5.832 5.832 0 0 0-5.009-2.211 5.81 5.81 0 0 0-5.36 6.234c.055.87.327 1.906.77 2.656l-.51-.69c1.554 2.363 19.002 19.405 27.565 27.716 1.573 1.526 2.36 2.29 3.266 2.574.797.25 1.657.244 2.45-.018.903-.298 1.682-1.077 3.24-2.635l25.25-25.25a28.555 28.555 0 0 1 33.649-3.036c.174.106.26.16.307.186.151.087.233.128.392.197.05.022.107.045.22.091a35.89 35.89 0 0 1 2.186.963c15.107 7.274 18.183 21.532 11.729 33.64z" fill="url(#c)"/><path d="M167.706 78.995c-4.096 7.694-9.412 9.595-12.366 18.22a23.929 23.929 0 0 0-1.374 8.367c.021 1.4-1.363 2.489-2.624 1.881-15.107-7.274-18.183-21.533-11.729-33.641 3.235-6.075 7.225-8.54 10.219-13.55a24.546 24.546 0 0 0 2.146-4.67 23.929 23.929 0 0 0 1.154-11.266.127.127 0 0 1 .176-.137c.894.35 1.791.73 2.668 1.154 15.108 7.275 18.184 21.533 11.73 33.642z" fill="url(#d)"/><path d="M116.864 32.942c3.293-2.895 9.819-5.733 15.484-5.563l.208.006c2.775.088 4.162.132 4.595-.217.39-.314.584-.75.557-1.25-.031-.555-.88-1.44-2.579-3.211-1.107-1.155-2.404-2.299-3.84-3.198-4.68-2.93-6.405-3.552-9.993-4.288a26.98 26.98 0 0 0-20.864 4.304c-1.357.948-3.68 3.233-5.82 5.453-1.798 1.866-2.697 2.799-3.633 3.11a3.82 3.82 0 0 1-2.536-.007c-.936-.315-1.834-1.255-3.63-3.137-2.242-2.35-4.726-4.797-6.203-5.765a27.568 27.568 0 0 0-19.25-4.205c-.78.118-1.169.177-1.705.433-.38.181-.97.622-1.252.935-.397.442-.563.798-.896 1.508a27.059 27.059 0 0 0-1.253 3.193 25.554 25.554 0 0 0-.889 3.574c-1.244 6.927.47 14.414 4.335 20.296.027.034.091-.005.074-.046-.267-.628-.54-1.54-.586-2.267a5.81 5.81 0 0 1 5.36-6.234 5.835 5.835 0 0 1 3.162.667c.606.322 1.672 1.634 2.322 2.246l5.793 5.797 11.468 11.468 1.015 1.012.05.049a4 4 0 0 0 5.615.002l.05-.049L111.74 37.84c1.766-1.89 3.477-3.448 5.123-4.897z" fill="url(#e)"/><defs><linearGradient id="a" x1="53.09" y1="122.511" x2="125.431" y2="122.511" gradientUnits="userSpaceOnUse"><stop stop-color="#43B088"/><stop offset=".005" stop-color="#43B088"/><stop offset="1" stop-color="#52CC9F"/></linearGradient><linearGradient id="b" x1="27.189" y1="44.114" x2="27.189" y2="108.703" gradientUnits="userSpaceOnUse"><stop stop-color="#3FAB83"/><stop offset="1" stop-color="#66D5AD"/></linearGradient><linearGradient id="c" x1="36.012" y1="61.683" x2="170.891" y2="61.683" gradientUnits="userSpaceOnUse"><stop offset=".005" stop-color="#E75C5B"/><stop offset=".131" stop-color="#F13E44"/><stop offset=".26" stop-color="#F92732"/><stop offset=".38" stop-color="#FD1927"/><stop offset=".485" stop-color="#FF1423"/><stop offset=".651" stop-color="#FF1423"/><stop offset=".817" stop-color="#77BB9A"/><stop offset=".94" stop-color="#64D3AB"/></linearGradient><linearGradient id="d" x1="23024.8" y1="23944.4" x2="23024.8" y2="34170.2" gradientUnits="userSpaceOnUse"><stop stop-color="#3FAB83"/><stop offset="1" stop-color="#66D5AD"/></linearGradient><linearGradient id="e" x1="52.932" y1="37.539" x2="138.907" y2="37.539" gradientUnits="userSpaceOnUse"><stop stop-color="#ED1C24"/><stop offset=".005" stop-color="#ED1C24"/><stop offset="1" stop-color="#E75C5B"/></linearGradient></defs></svg>