<svg width="154" height="54" viewBox="0 0 154 54" fill="none" xmlns="http://www.w3.org/2000/svg">
<path fill-rule="evenodd" clip-rule="evenodd" d="M85.9113 40.5698C84.6348 40.5698 83.4963 40.2248 82.5188 39.5463C81.5635 38.8713 80.8756 37.8823 80.5753 36.7518L82.8523 36.3608C83.1581 36.9661 83.594 37.4962 84.1288 37.9133C84.6003 38.2468 85.1983 38.4078 85.9343 38.4078C86.6243 38.4078 87.1648 38.2583 87.6018 37.9478C87.8105 37.8102 87.9812 37.6221 88.0978 37.401C88.2144 37.1798 88.2732 36.9328 88.2688 36.6828C88.2688 36.2803 88.1538 35.9583 87.9008 35.6938C87.6366 35.408 87.3153 35.1808 86.9578 35.0268C86.4615 34.8105 85.9548 34.6186 85.4398 34.4518C84.7051 34.22 83.9867 33.9395 83.2893 33.6123C82.7136 33.3158 82.2139 32.8909 81.8288 32.3703C81.418 31.7394 81.2167 30.9948 81.2538 30.2428C81.2538 29.4378 81.4378 28.7478 81.8288 28.1613C82.2334 27.5577 82.7992 27.0796 83.4618 26.7813C84.1518 26.4708 84.9108 26.3098 85.7618 26.3098C86.9578 26.3098 87.9928 26.6203 88.8668 27.2528C89.7178 27.8853 90.3273 28.7478 90.6838 29.8518L88.4413 30.2198C88.2271 29.6969 87.868 29.2461 87.4063 28.9203C86.9578 28.6213 86.4403 28.4718 85.8423 28.4718C85.2213 28.4718 84.7038 28.6213 84.2898 28.9088C83.8643 29.1963 83.6573 29.5988 83.6573 30.1278C83.6573 30.5188 83.7723 30.8408 84.0023 31.1053C84.2553 31.3698 84.5773 31.5883 84.9568 31.7608C85.3363 31.9333 85.8423 32.1288 86.4863 32.3473C87.3603 32.6463 88.0848 32.9453 88.6368 33.2328C89.2118 33.5203 89.6718 33.9458 90.0743 34.4978C90.5007 35.1145 90.7147 35.8532 90.6838 36.6023C90.6838 37.4073 90.4653 38.0973 90.0398 38.7068C89.6143 39.3048 89.0393 39.7648 88.3148 40.0983C87.5903 40.4088 86.7968 40.5698 85.9113 40.5698ZM65.0963 40.3743H67.8563L64.0153 35.0958C65.0503 34.8428 65.8783 34.3368 66.4878 33.5893C67.1203 32.8303 67.4308 31.9333 67.4308 30.8983C67.4308 30.0358 67.2238 29.2883 66.7983 28.6328C66.3775 27.9619 65.7755 27.4236 65.0618 27.0803C64.2764 26.6895 63.4089 26.4924 62.5318 26.5053H57.4258V40.3743H59.7833V35.2798H61.4508L65.0963 40.3743ZM59.7833 33.1178V28.6673H62.5318C63.2563 28.6673 63.8543 28.8743 64.3143 29.2998C64.7743 29.7023 65.0158 30.2313 65.0158 30.8983C65.0158 31.5538 64.7858 32.0828 64.3143 32.5083C63.8543 32.9108 63.2563 33.1178 62.5318 33.1178H59.7718H59.7833ZM71.3983 40.0178C71.9465 40.3624 72.577 40.5537 73.2242 40.5719C73.8714 40.5901 74.5116 40.4345 75.0783 40.1213C75.6133 39.8086 76.0604 39.3655 76.3778 38.8333L76.8378 40.3743H78.5168V30.1393H76.2628V36.0618C76.2628 36.7863 76.0443 37.3843 75.6188 37.8558C75.1818 38.3158 74.6413 38.5458 73.9858 38.5458C73.6871 38.5521 73.3907 38.4937 73.1167 38.3746C72.8428 38.2555 72.5979 38.0785 72.3988 37.8558C71.9963 37.3958 71.7893 36.7978 71.7893 36.0618V30.1393H69.5353V36.3148C69.5353 37.1313 69.6963 37.8558 70.0183 38.4998C70.3633 39.1438 70.8233 39.6498 71.3983 40.0178ZM98.9178 40.3628L99.1133 38.4078H97.0203C96.2613 38.4078 95.8703 38.0283 95.8703 37.2578V32.1058H98.9178V30.1508H95.8818V27.1953H94.1913L93.6163 30.1393H91.9488V32.1173H93.6163V37.2693C93.6163 38.2698 93.9038 39.0518 94.4788 39.5808C95.0538 40.1098 95.9048 40.3743 97.0088 40.3743H98.9178V40.3628ZM105.76 40.5698C104.714 40.5698 103.771 40.3398 102.931 39.9028C102.125 39.4615 101.453 38.8097 100.988 38.0168C100.528 37.2003 100.298 36.2918 100.298 35.2568C100.298 34.2333 100.528 33.3248 100.988 32.5198C101.449 31.7194 102.126 31.0656 102.943 30.6338C103.771 30.1738 104.714 29.9438 105.76 29.9438C106.795 29.9438 107.738 30.1738 108.566 30.6338C109.406 31.0823 110.05 31.7148 110.51 32.5313C110.97 33.3248 111.211 34.2333 111.211 35.2568C111.211 36.2918 110.981 37.2003 110.51 38.0168C110.049 38.8172 109.371 39.471 108.555 39.9028C107.75 40.3513 106.807 40.5698 105.76 40.5698ZM105.76 38.4998C106.68 38.4998 107.416 38.2123 107.991 37.6143C108.566 37.0163 108.854 36.2343 108.854 35.2568C108.854 34.2908 108.566 33.5088 107.991 32.9223C107.704 32.6227 107.357 32.387 106.973 32.2305C106.588 32.0739 106.175 32.0001 105.76 32.0138C104.84 32.0138 104.093 32.3128 103.518 32.9223C102.943 33.5088 102.655 34.2908 102.655 35.2568C102.655 36.2343 102.943 37.0163 103.518 37.6143C104.093 38.2123 104.84 38.4998 105.76 38.4998ZM115.052 30.1393H113.373V40.3743H115.627V34.3368C115.627 32.9798 116.294 32.3128 117.628 32.3128H118.928L118.721 30.1393H118.295C117.651 30.1393 117.099 30.2543 116.651 30.4843C116.202 30.7028 115.811 31.0823 115.489 31.6228L115.052 30.1393ZM130.221 35.1418L130.186 35.8663H121.975C122.09 36.6713 122.412 37.3153 122.964 37.7983C123.552 38.2806 124.297 38.5302 125.057 38.4998C125.632 38.4998 126.15 38.3848 126.61 38.1663C127.081 37.9478 127.438 37.6488 127.691 37.2693L129.807 37.6143C129.453 38.5445 128.781 39.3189 127.909 39.7993C126.999 40.3186 125.967 40.5847 124.919 40.5698C123.907 40.5698 122.987 40.3398 122.171 39.9028C121.388 39.4543 120.74 38.8027 120.296 38.0168C119.848 37.2118 119.629 36.2918 119.629 35.2568C119.629 34.2333 119.859 33.3248 120.296 32.5313C120.731 31.7354 121.38 31.0778 122.171 30.6338C122.987 30.1738 123.896 29.9438 124.931 29.9438C125.943 29.9438 126.851 30.1738 127.645 30.6338C128.441 31.0642 129.096 31.7151 129.531 32.5083C129.991 33.2903 130.221 34.1758 130.221 35.1418ZM124.931 31.9218C124.285 31.9038 123.652 32.1066 123.137 32.4968C122.642 32.8993 122.297 33.4283 122.113 34.1068H127.771C127.597 33.4817 127.226 32.9294 126.713 32.5313C126.207 32.1201 125.571 31.9039 124.919 31.9218H124.931Z" fill="white"/>
<path d="M57.4258 22.6298V19.5018H57.6558C57.8881 19.5077 58.1141 19.4256 58.2883 19.2718C58.4493 19.1223 58.5873 18.8693 58.7023 18.4898C58.8502 17.9755 58.9466 17.4477 58.9898 16.9143L59.4268 12.5098H64.4178V19.5018H65.6253V22.6068H64.4178V20.5598H58.6218V22.6068H57.4258V22.6298ZM59.4728 19.5018H63.1873V13.5793H60.5423L60.1973 16.9833C60.1398 17.6733 60.0478 18.2138 59.9328 18.5933C59.8178 18.9613 59.6683 19.2373 59.4728 19.4443V19.5018ZM69.3283 20.7208C68.7648 20.7208 68.2703 20.5943 67.8448 20.3298C67.4192 20.069 67.0793 19.6892 66.8673 19.2373C66.6373 18.7543 66.5223 18.1908 66.5223 17.5468C66.5223 16.9028 66.6373 16.3508 66.8673 15.8678C67.0973 15.3963 67.4193 15.0283 67.8448 14.7753C68.2703 14.5108 68.7648 14.3843 69.3398 14.3843C69.8918 14.3843 70.3863 14.5108 70.8003 14.7753C71.2258 15.0283 71.5593 15.3963 71.7893 15.8678C72.0193 16.3393 72.1343 16.9028 72.1343 17.5468C72.1343 18.1908 72.0193 18.7543 71.7893 19.2373C71.5593 19.6973 71.2258 20.0768 70.8003 20.3298C70.3863 20.5943 69.8918 20.7208 69.3283 20.7208ZM69.3283 19.7088C69.8228 19.7088 70.2138 19.5248 70.5013 19.1338C70.7773 18.7543 70.9153 18.2138 70.9153 17.5468C70.9153 16.8683 70.7773 16.3508 70.5013 15.9598C70.3685 15.7745 70.1918 15.625 69.9871 15.5247C69.7824 15.4243 69.5561 15.3763 69.3283 15.3848C68.8338 15.3848 68.4428 15.5803 68.1668 15.9598C67.8793 16.3508 67.7413 16.8798 67.7413 17.5468C67.7413 18.2253 67.8793 18.7543 68.1668 19.1453C68.4428 19.5248 68.8338 19.7203 69.3283 19.7203V19.7088ZM76.1363 20.7208C75.5613 20.7208 75.0668 20.5943 74.6413 20.3298C74.2157 20.069 73.8758 19.6892 73.6638 19.2373C73.4338 18.7543 73.3188 18.2023 73.3188 17.5583C73.3188 16.9143 73.4338 16.3508 73.6638 15.8678C73.8938 15.3963 74.2158 15.0283 74.6298 14.7753C75.0553 14.5108 75.5498 14.3843 76.1363 14.3843C76.7803 14.3843 77.3208 14.5453 77.7578 14.8443C78.2178 15.1548 78.5053 15.6033 78.6433 16.1668H77.4243C77.319 15.9257 77.1425 15.7227 76.9184 15.5849C76.6943 15.4472 76.4334 15.3813 76.1708 15.3963C75.6533 15.3963 75.2508 15.5803 74.9633 15.9713C74.6758 16.3508 74.5378 16.8798 74.5378 17.5583C74.5378 18.2368 74.6758 18.7658 74.9633 19.1453C75.2508 19.5248 75.6533 19.7203 76.1823 19.7203C76.5043 19.7203 76.7803 19.6398 77.0218 19.4903C77.2596 19.3404 77.4321 19.1063 77.5048 18.8348H78.7238C78.6015 19.3941 78.273 19.8868 77.8038 20.2148C77.3438 20.5598 76.7918 20.7208 76.1363 20.7208ZM82.5073 20.5713H81.3228V15.5343H79.3678V14.5338H84.4738V15.5458H82.4958V20.5598L82.5073 20.5713ZM89.6833 14.5338H90.8793L88.6598 21.0313C88.4988 21.5143 88.3148 21.8938 88.1193 22.1468C87.9445 22.3955 87.7006 22.5874 87.4178 22.6988C87.1303 22.8138 86.7623 22.8598 86.2908 22.8598H85.8308V21.8248H86.3253C86.5783 21.8248 86.7853 21.7903 86.9233 21.7443C87.0638 21.6898 87.1843 21.5934 87.2683 21.4683C87.3904 21.2891 87.4907 21.0961 87.5673 20.8933L87.6248 20.7208L85.1523 14.5338H86.4173L88.1423 19.1338H88.1998L89.6718 14.5338H89.6833ZM93.2943 20.5713H92.1213V14.5338H97.0663V20.5713H95.8818V15.5343H93.2943V20.5713ZM102.805 17.0063V14.5338H103.978V20.5713H102.805V18.0068H100.125V20.5713H98.9523V14.5338H100.125V17.0063H102.805ZM108.336 20.7208C107.773 20.7208 107.278 20.5943 106.853 20.3298C106.427 20.069 106.087 19.6892 105.875 19.2373C105.645 18.7543 105.53 18.1908 105.53 17.5468C105.53 16.9028 105.645 16.3508 105.875 15.8678C106.105 15.3963 106.427 15.0283 106.853 14.7753C107.278 14.5108 107.773 14.3843 108.348 14.3843C108.923 14.3843 109.394 14.5108 109.82 14.7753C110.245 15.0283 110.567 15.3963 110.797 15.8678C111.027 16.3393 111.142 16.9028 111.142 17.5468C111.142 18.1908 111.027 18.7543 110.797 19.2373C110.567 19.6973 110.245 20.0768 109.82 20.3298C109.394 20.5943 108.9 20.7208 108.336 20.7208ZM108.336 19.7203C108.831 19.7203 109.222 19.5248 109.509 19.1453C109.785 18.7543 109.923 18.2253 109.923 17.5353C109.923 16.8683 109.785 16.3508 109.509 15.9598C109.376 15.7745 109.2 15.625 108.995 15.5247C108.79 15.4243 108.564 15.3763 108.336 15.3848C107.842 15.3848 107.451 15.5803 107.175 15.9598C106.887 16.3508 106.749 16.8798 106.749 17.5468C106.749 18.2253 106.887 18.7543 107.175 19.1453C107.451 19.5248 107.842 19.7203 108.336 19.7203ZM119.491 17.3973C120.204 17.6273 120.561 18.1103 120.561 18.8233C120.561 19.3523 120.365 19.7893 119.986 20.0998C119.595 20.4218 119.066 20.5713 118.41 20.5713H115.708V14.5338H118.353C118.951 14.5338 119.445 14.6833 119.802 14.9708C120.181 15.2468 120.377 15.6263 120.377 16.0863C120.383 16.3574 120.303 16.6235 120.147 16.8453C119.984 17.0681 119.76 17.2397 119.503 17.3398V17.3973H119.491ZM116.881 15.4883V16.9833H118.318C118.594 16.9833 118.801 16.9258 118.951 16.7878C119.028 16.7189 119.089 16.6335 119.129 16.538C119.168 16.4424 119.186 16.3391 119.181 16.2358C119.186 16.1324 119.168 16.0291 119.129 15.9336C119.089 15.838 119.028 15.7526 118.951 15.6838C118.773 15.5383 118.548 15.4644 118.318 15.4768H116.881V15.4883ZM118.387 19.6283C118.651 19.6431 118.91 19.5567 119.112 19.3868C119.203 19.3072 119.276 19.2079 119.324 19.0964C119.371 18.9849 119.393 18.864 119.388 18.7428C119.394 18.6231 119.372 18.5037 119.325 18.3939C119.277 18.2841 119.204 18.187 119.112 18.1103C118.908 17.9445 118.649 17.8623 118.387 17.8803H116.881V19.6283H118.387Z" fill="white"/>
<path d="M21.9709 39.0283C23.9309 41 27.1043 41 33.4393 41H34.5593C40.8943 41 44.0676 41 46.0276 39.0283C47.9993 37.0683 47.9993 33.895 47.9993 27.56V26.44C47.9993 20.105 47.9993 16.9317 46.0276 14.9717C44.0676 13 40.8943 13 34.5593 13H33.4393C27.1043 13 23.9309 13 21.9709 14.9717C19.9993 16.9317 19.9993 20.105 19.9993 26.44V27.56C19.9993 33.895 19.9993 37.0567 21.9709 39.0283Z" fill="white"/>
<path fill-rule="evenodd" clip-rule="evenodd" d="M41.6425 31.6198L39.7408 31.1531C39.6287 31.1209 39.5298 31.0537 39.4584 30.9614C39.3871 30.8691 39.3471 30.7564 39.3441 30.6398L39.1108 23.6631C39.0738 23.2428 38.9151 22.8423 38.654 22.5107C38.3929 22.1792 38.0408 21.931 37.6408 21.7965C37.6204 21.7874 37.5974 21.7859 37.576 21.7923C37.5546 21.7987 37.5362 21.8126 37.5241 21.8315C37.5147 21.8488 37.5118 21.869 37.5161 21.8883C37.5204 21.9077 37.5315 21.9248 37.5475 21.9365C37.7225 22.0765 38.2125 22.5198 38.2125 23.2898V32.4131C38.2125 33.2881 37.3841 33.9298 36.5208 33.7198L34.5958 33.2415C34.4899 33.2059 34.3973 33.1387 34.3306 33.0491C34.2639 32.9594 34.2262 32.8515 34.2225 32.7398L33.9891 25.7631C33.9522 25.3428 33.7934 24.9423 33.5323 24.6107C33.2712 24.2792 32.9191 24.031 32.5191 23.8965C32.4987 23.8874 32.4757 23.8859 32.4543 23.8923C32.4329 23.8987 32.4145 23.9126 32.4025 23.9315C32.396 23.9405 32.3915 23.9509 32.3892 23.9618C32.3868 23.9727 32.3867 23.9839 32.3889 23.9948C32.3911 24.0058 32.3955 24.0161 32.4019 24.0253C32.4082 24.0345 32.4164 24.0422 32.4258 24.0481C32.6008 24.1648 33.0908 24.6315 33.0908 25.3898V34.5131C33.0908 35.3998 32.2625 36.0298 31.3991 35.8315L25.9508 34.4665C25.5857 34.3757 25.2614 34.1658 25.0289 33.87C24.7965 33.5742 24.6693 33.2093 24.6675 32.8331V23.6981C24.6675 22.8115 25.4958 22.1698 26.3591 22.3798L29.7891 23.2315V21.5981C29.7891 20.7115 30.6175 20.0581 31.4808 20.2798L34.9108 21.1315V19.4865C34.9108 18.5998 35.7508 17.9698 36.6025 18.1681L42.0508 19.5331C42.4159 19.6239 42.7403 19.8338 42.9727 20.1296C43.2051 20.4254 43.3323 20.7903 43.3341 21.1665V30.3131C43.3341 31.1881 42.5058 31.8298 41.6425 31.6198Z" fill="#FF7F50"/>
</svg>
