<svg width="34" height="34" fill="none" xmlns="http://www.w3.org/2000/svg"><path fill-rule="evenodd" clip-rule="evenodd" d="M21.96 13.875a7.792 7.792 0 1 1-15.583 0 7.792 7.792 0 0 1 15.583 0zm-.912 9.884a11.986 11.986 0 0 1-6.88 2.158c-6.65 0-12.041-5.392-12.041-12.042 0-6.65 5.391-12.042 12.042-12.042 6.65 0 12.041 5.392 12.041 12.042 0 2.558-.797 4.929-2.157 6.879l6.494 6.493a2.125 2.125 0 1 1-3.006 3.006l-6.493-6.494z" fill="#fff"/><path d="m21.048 23.76.66-.66-.553-.553-.64.447.533.765zm3.005-3.006-.765-.534-.447.641.552.553.66-.66zm6.494 6.493-.66.66.66-.66zm-3.006 3.006.66-.66-.66.66zM14.17 22.6a8.725 8.725 0 0 0 8.725-8.725h-1.867a6.858 6.858 0 0 1-6.858 6.858V22.6zm-8.725-8.725a8.725 8.725 0 0 0 8.725 8.725v-1.867a6.858 6.858 0 0 1-6.859-6.858H5.444zm8.725-8.725a8.725 8.725 0 0 0-8.725 8.725H7.31a6.858 6.858 0 0 1 6.859-6.858V5.15zm8.725 8.725a8.725 8.725 0 0 0-8.725-8.725v1.867a6.858 6.858 0 0 1 6.858 6.858h1.867zM14.169 26.85c2.754 0 5.311-.86 7.413-2.325l-1.068-1.531a11.053 11.053 0 0 1-6.345 1.99v1.866zM1.194 13.875c0 7.166 5.809 12.975 12.975 12.975v-1.867c-6.135 0-11.109-4.973-11.109-11.108H1.194zM14.169.9C7.003.9 1.194 6.71 1.194 13.875H3.06C3.06 7.74 8.034 2.767 14.17 2.767V.9zm12.975 12.975C27.144 6.709 21.334.9 14.169.9v1.867c6.135 0 11.108 4.973 11.108 11.108h1.867zm-2.325 7.413a12.92 12.92 0 0 0 2.325-7.413h-1.867c0 2.36-.735 4.547-1.99 6.345l1.532 1.068zm-1.426.126 6.494 6.493 1.32-1.32-6.494-6.493-1.32 1.32zm6.494 6.493c.465.466.465 1.22 0 1.686l1.32 1.32a3.058 3.058 0 0 0 0-4.326l-1.32 1.32zm0 1.686a1.192 1.192 0 0 1-1.686 0l-1.32 1.32a3.058 3.058 0 0 0 4.326 0l-1.32-1.32zm-1.686 0-6.493-6.494-1.32 1.32 6.493 6.494 1.32-1.32z" fill="#fff"/></svg>