<svg width="23" height="24" fill="none" xmlns="http://www.w3.org/2000/svg"><path d="M10.187 3.002c.507-1.136 2.12-1.136 2.626 0l1.923 4.316c.21.468.652.79 1.163.844l4.698.496c1.237.13 1.736 1.664.812 2.497l-3.51 3.163c-.381.344-.55.864-.444 1.366l.98 4.622c.258 1.217-1.046 2.165-2.124 1.544l-4.093-2.36a1.437 1.437 0 0 0-1.436 0l-4.093 2.36c-1.078.621-2.383-.327-2.124-1.544l.98-4.622a1.437 1.437 0 0 0-.444-1.366l-3.51-3.163c-.924-.833-.426-2.367.812-2.497L7.1 8.162c.51-.054.953-.376 1.162-.844l1.924-4.316z" fill="#52CC9F"/></svg>