<svg width="24" height="22" viewBox="0 0 24 22" fill="none" xmlns="http://www.w3.org/2000/svg">
<path d="M10.6292 1.08591C11.1569 -0.102151 12.8431 -0.102149 13.3708 1.08591L15.5071 5.89501C15.7251 6.38558 16.1885 6.72231 16.7224 6.77797L21.9563 7.32362C23.2493 7.45843 23.7703 9.06203 22.8035 9.9311L18.89 13.4489C18.4907 13.8078 18.3137 14.3526 18.4258 14.8776L19.5242 20.0239C19.7955 21.2953 18.4314 22.2864 17.3061 21.6354L12.7511 19.0005C12.2864 18.7317 11.7136 18.7317 11.2489 19.0005L6.69388 21.6354C5.56859 22.2864 4.20448 21.2953 4.47584 20.0239L5.57424 14.8776C5.68629 14.3526 5.50926 13.8078 5.11004 13.4489L1.19648 9.9311C0.229648 9.06203 0.750694 7.45843 2.0437 7.32362L7.27757 6.77797C7.81148 6.72231 8.27494 6.38558 8.49286 5.89501L10.6292 1.08591Z" fill="#C5D4CF"/>
</svg>
