<?xml version="1.0" standalone="no"?>
<!DOCTYPE svg PUBLIC "-//W3C//DTD SVG 20010904//EN"
 "http://www.w3.org/TR/2001/REC-SVG-20010904/DTD/svg10.dtd">
<svg version="1.0" xmlns="http://www.w3.org/2000/svg"
 width="700.000000pt" height="700.000000pt" viewBox="0 0 700.000000 700.000000"
 preserveAspectRatio="xMidYMid meet">
<metadata>
Created by potrace 1.14, written by Peter Selinger 2001-2017
</metadata>
<g transform="translate(0.000000,700.000000) scale(0.100000,-0.100000)"
fill="#000000" stroke="none">
<path d="M1689 6996 c-2 -2 -30 -6 -61 -10 -175 -18 -404 -84 -573 -165 -580
-277 -963 -812 -1044 -1461 -6 -45 -9 -807 -8 -1895 l2 -1820 23 -124 c110
-583 481 -1076 1003 -1331 153 -75 371 -145 512 -165 27 -3 59 -9 70 -13 12
-4 845 -7 1852 -8 1889 -3 1878 -3 2071 36 119 23 307 88 423 145 451 221 790
607 945 1076 30 92 49 169 82 344 10 54 15 3654 4 3730 -4 33 -11 85 -14 115
-4 30 -11 69 -16 85 -5 17 -12 44 -15 62 -21 124 -145 417 -236 553 -193 293
-434 508 -744 663 -114 56 -301 122 -410 143 -11 2 -31 6 -45 9 -14 3 -42 8
-64 11 -21 3 -48 9 -60 12 -22 7 -3690 15 -3697 8z"/>
</g>
</svg>
